<?xml version="1.0" encoding="utf-8"?>
<!-- Generator: Adobe Illustrator 17.0.0, SVG Export Plug-In . SVG Version: 6.00 Build 0)  -->
<!DOCTYPE svg PUBLIC "-//W3C//DTD SVG 1.1//EN" "http://www.w3.org/Graphics/SVG/1.1/DTD/svg11.dtd">
<svg version="1.1" id="Layer_1" xmlns="http://www.w3.org/2000/svg" xmlns:xlink="http://www.w3.org/1999/xlink" x="0px" y="0px"
	 width="30.475px" height="29.872px" viewBox="0 0 30.475 29.872" enable-background="new 0 0 30.475 29.872" xml:space="preserve">
<g>
	<polygon fill="#92A2A3" points="24.815,10.314 20.797,10.314 20.797,14.936 16.175,14.936 16.175,18.955 20.797,18.955 
		20.797,23.576 24.815,23.576 24.815,18.955 29.437,18.955 29.437,14.936 24.815,14.936 	"/>
	<path fill="#92A2A3" d="M14.166,12.927h4.621V8.305h8.037v4.621h2.331c0.835-1.34,1.32-2.858,1.32-4.523
		c0-4.64-3.761-8.403-8.4-8.403c-2.819,0-5.313,1.389-6.837,3.519C13.714,1.389,11.219,0,8.4,0C3.761,0,0,3.762,0,8.402
		c0,2.017,0.711,3.868,1.895,5.316l13.342,16.154l3.55-4.298v-4.61h-4.621V12.927z"/>
</g>
</svg>
