<?xml version="1.0" encoding="utf-8"?>
<!-- Generator: Adobe Illustrator 17.0.0, SVG Export Plug-In . SVG Version: 6.00 Build 0)  -->
<!DOCTYPE svg PUBLIC "-//W3C//DTD SVG 1.1//EN" "http://www.w3.org/Graphics/SVG/1.1/DTD/svg11.dtd">
<svg version="1.1" id="Layer_1" xmlns="http://www.w3.org/2000/svg" xmlns:xlink="http://www.w3.org/1999/xlink" x="0px" y="0px"
	 width="29.852px" height="26.633px" viewBox="0 0 29.852 26.633" enable-background="new 0 0 29.852 26.633" xml:space="preserve">
<g>
	<g id="iconos_7_">
		<polygon fill="#92A2A3" points="23.907,15.598 21.897,18.713 20.567,18.176 15.93,26.633 21.377,26.633 23.764,23.469 
			25.813,23.469 28.006,26.633 29.852,26.633 25.626,16.064 		"/>
		<polygon fill="#92A2A3" points="25.538,23.997 24.027,23.997 22.038,26.633 27.365,26.633 		"/>
		<path fill="#92A2A3" d="M2.117,21.571L0.55,26.633h2.175l1.74-5.042l0.497-3.924H6.62l1.491,4.066L7.2,26.633h2.111l1.038-5.549
			L9.311,18.16l-0.377-1.323l5.711,3.236l-1.072,1.86l2.489,1.434l2.632-4.569l-2.489-1.434l-1.034,1.795l-6.65-3.767l-0.359-1.259
			l0.652-2.643l0.281,2.415l0.451,1.172l1.781,1.042l-0.739-2.625L10.02,8.45L8.174,8.374L7.85,7.482
			c1.237-0.253,2.167-1.318,2.236-2.613L4.53,4.132c-0.041,0.19-0.064,0.387-0.064,0.589c0,0.975,0.496,1.834,1.249,2.34
			L5.665,7.055L4.553,7.99l-1.425-0.12L0,10.606v4.162l2.485,0.614L2.117,21.571z M1.582,13.256v-1.243l1.055-0.963v2.444
			L1.582,13.256z"/>
		<path fill="#92A2A3" d="M10.061,4.334l0.844,0.112c0.112-2.51-0.978-4.152-2.953-4.413C7.791,0.011,7.631,0,7.472,0
			c-1.749,0-3.021,1.28-3.52,3.524l0.736,0.098L10.061,4.334z"/>
	</g>
</g>
</svg>
