<?xml version="1.0" encoding="utf-8"?>
<!-- Generator: Adobe Illustrator 17.0.0, SVG Export Plug-In . SVG Version: 6.00 Build 0)  -->
<!DOCTYPE svg PUBLIC "-//W3C//DTD SVG 1.1//EN" "http://www.w3.org/Graphics/SVG/1.1/DTD/svg11.dtd">
<svg version="1.1" id="Layer_1" xmlns="http://www.w3.org/2000/svg" xmlns:xlink="http://www.w3.org/1999/xlink" x="0px" y="0px"
	 width="23.212px" height="22.726px" viewBox="0 0 23.212 22.726" enable-background="new 0 0 23.212 22.726" xml:space="preserve">
<g>
	<path fill="#92A2A3" d="M20.022,8.757l-0.586-1.392c0,0,1.363-3.076,1.243-3.194l-1.805-1.762
		c-0.125-0.121-3.202,1.283-3.202,1.283l-1.419-0.573c0,0-1.254-3.118-1.426-3.118H10.28c-0.177,0-1.338,3.124-1.338,3.124
		L7.525,3.7c0,0-3.142-1.335-3.262-1.216L2.461,4.248c-0.125,0.121,1.31,3.135,1.31,3.135l-0.586,1.39C3.185,8.773,0,10,0,10.166
		v2.497c0,0.174,3.192,1.311,3.192,1.311l0.586,1.388c0,0-1.363,3.074-1.244,3.192l1.804,1.766c0.123,0.119,3.201-1.285,3.201-1.285
		l1.42,0.575c0,0,1.254,3.116,1.427,3.116h2.547c0.176,0,1.338-3.124,1.338-3.124l1.421-0.575c0,0,3.135,1.335,3.257,1.218
		l1.804-1.764c0.126-0.124-1.312-3.135-1.312-3.135l0.585-1.39c0,0,3.186-1.229,3.186-1.397v-2.494
		C23.213,9.89,20.022,8.757,20.022,8.757z M15.328,11.362c0,2.007-1.67,3.642-3.721,3.642c-2.049,0-3.721-1.634-3.721-3.642
		s1.672-3.639,3.721-3.639C13.659,7.724,15.328,9.355,15.328,11.362z"/>
</g>
</svg>
