<?xml version="1.0" encoding="utf-8"?>
<!-- Generator: Adobe Illustrator 17.0.0, SVG Export Plug-In . SVG Version: 6.00 Build 0)  -->
<!DOCTYPE svg PUBLIC "-//W3C//DTD SVG 1.1//EN" "http://www.w3.org/Graphics/SVG/1.1/DTD/svg11.dtd">
<svg version="1.1" id="Layer_1" xmlns="http://www.w3.org/2000/svg" xmlns:xlink="http://www.w3.org/1999/xlink" x="0px" y="0px"
	 width="27.06px" height="20.583px" viewBox="0 0 27.06 20.583" enable-background="new 0 0 27.06 20.583" xml:space="preserve">
<path fill="#92A2A3" d="M26.586,15.787H9.072c-0.261,0-0.474-0.213-0.474-0.474V4.334c0-0.261,0.213-0.474,0.474-0.474h17.514
	c0.261,0,0.474,0.213,0.474,0.474v10.979C27.06,15.574,26.848,15.787,26.586,15.787z M21.733,19.252h-1.774v-2.134H15.7v2.134
	h-1.774c-0.368,0-0.665,0.298-0.665,0.665c0,0.368,0.298,0.665,0.665,0.665h2.44h2.928h2.44c0.368,0,0.665-0.298,0.665-0.665
	C22.398,19.55,22.1,19.252,21.733,19.252z M10.625,2.528H9.072c-0.097,0-0.192,0.01-0.285,0.025
	c-0.055-0.015-0.111-0.025-0.17-0.025H2.009c-0.368,0-0.665,0.298-0.665,0.665s0.298,0.665,0.665,0.665h5.324
	c-0.041,0.151-0.065,0.31-0.065,0.474v1.239H2.009c-0.368,0-0.665,0.298-0.665,0.665c0,0.368,0.298,0.665,0.665,0.665h5.258v1.713
	H2.009c-0.368,0-0.665,0.298-0.665,0.665s0.298,0.665,0.665,0.665h5.258v5.365c0,0.995,0.81,1.805,1.805,1.805h1.554v2.8
	c0,0.368-0.298,0.665-0.665,0.665H0.665C0.298,20.583,0,20.285,0,19.917V0.665C0,0.298,0.298,0,0.665,0H9.96
	c0.368,0,0.665,0.298,0.665,0.665V2.528z M4.287,15.667c0,0.567,0.459,1.026,1.026,1.026s1.026-0.459,1.026-1.026
	s-0.459-1.026-1.026-1.026C4.746,14.641,4.287,15.1,4.287,15.667z"/>
</svg>
