<?xml version="1.0" encoding="utf-8"?>
<!-- Generator: Adobe Illustrator 17.0.0, SVG Export Plug-In . SVG Version: 6.00 Build 0)  -->
<!DOCTYPE svg PUBLIC "-//W3C//DTD SVG 1.1//EN" "http://www.w3.org/Graphics/SVG/1.1/DTD/svg11.dtd">
<svg version="1.1" id="Layer_1" xmlns="http://www.w3.org/2000/svg" xmlns:xlink="http://www.w3.org/1999/xlink" x="0px" y="0px"
	 width="30.479px" height="24.354px" viewBox="0 0 30.479 24.354" enable-background="new 0 0 30.479 24.354" xml:space="preserve">
<path fill="#92A2A3" d="M25.067,9.02V0.902h-3.608v4.51L16.047,0L7.626,8.421C7.525,8.258,7.415,8.093,7.294,7.924
	C5.167,5.028,5.112,2.603,5.173,1.757c0.009-0.127-0.137-0.206-0.238-0.128c-0.279,0.216-0.522,0.47-0.729,0.741
	c-0.798,1.044-1.16,2.329-1.16,3.577c0,0.75-0.078,1.365-0.211,1.721c-0.334,0.891-0.92,0.496-0.823-1.062
	c0.008-0.131-0.146-0.208-0.245-0.121C1.436,6.774,0.864,7.448,0.399,8.892c-0.362,1.139-0.434,2.042-0.386,2.687
	c0.101,1.623,0.81,2.621,1.602,3.238v0.517h3.608v9.02h9.02v-5.412h3.608v5.412h9.02v-9.02h3.608v-0.902L25.067,9.02z M2.137,13.91
	c-0.121-1.063,0.333-2.181,1.022-3.124c0.983-1.346,1.346-2.86,1.346-2.86s0.438,0.836,1.18,2.437L2.137,13.91z"/>
</svg>
