<?xml version="1.0" encoding="utf-8"?>
<!-- Generator: Adobe Illustrator 17.0.0, SVG Export Plug-In . SVG Version: 6.00 Build 0)  -->
<!DOCTYPE svg PUBLIC "-//W3C//DTD SVG 1.1//EN" "http://www.w3.org/Graphics/SVG/1.1/DTD/svg11.dtd">
<svg version="1.1" id="Layer_1" xmlns="http://www.w3.org/2000/svg" xmlns:xlink="http://www.w3.org/1999/xlink" x="0px" y="0px"
	 width="28.703px" height="20.785px" viewBox="0 0 28.703 20.785" enable-background="new 0 0 28.703 20.785" xml:space="preserve">
<g>
	<path fill="#92A2A3" d="M24.292,15.14l-0.379,0.854l-3.174-6.801c-0.081-0.174-0.256-0.286-0.448-0.286h-0.193
		c-0.136-0.151-0.331-0.247-0.55-0.247h-0.99c-0.037,0-0.072,0.006-0.107,0.011l-0.514-0.145l-1.606-8.032H7.423l-0.25,5.004
		l-3.91-1.1C3.079,4.124,2.77,3.959,2.44,3.959H0.495C0.222,3.959,0,4.181,0,4.454V16.09c0,0.437,0.287,0.822,0.705,0.948
		l4.243,1.273v-0.495H19.3l2.662-1.777l-2.526-5.894h0.111c0.177,0,0.337-0.064,0.464-0.168l3.196,6.848h-1.433v1.98h0.888
		l-0.351,0.789c-0.068,0.153-0.054,0.33,0.037,0.471c0.091,0.14,0.247,0.225,0.415,0.225h5.444L24.292,15.14z M7.097,7.02
		l-0.07,1.393H4.949V7.378c0-0.293-0.087-0.58-0.249-0.824L4.528,6.298L7.097,7.02z M4.949,10.393v-0.99h2.029l-0.049,0.99h10.999
		l0,0H4.949z"/>
	<path fill="#7A8687" d="M15.431,1.98h-4.764c-0.791,0-1.443,0.62-1.483,1.41l-0.25,4.998c-0.014,0.283,0.211,0.52,0.494,0.52h7.19
		c0.312,0,0.547-0.286,0.485-0.592l-1.188-5.939C15.87,2.146,15.666,1.98,15.431,1.98z"/>
	<circle fill="#7A8687" cx="6.433" cy="16.331" r="4.454"/>
	<circle fill="#92A2A3" cx="6.433" cy="16.331" r="2.474"/>
	<circle fill="#7A8687" cx="6.433" cy="16.331" r="1.485"/>
	<circle fill="#7A8687" cx="18.311" cy="16.331" r="4.454"/>
	<circle fill="#92A2A3" cx="18.311" cy="16.331" r="2.474"/>
	<circle fill="#7A8687" cx="18.311" cy="16.331" r="1.485"/>
	<path fill="#7A8687" d="M28.209,20.29c-0.153,0-0.304-0.071-0.401-0.204l-3.959-5.444c-0.161-0.221-0.112-0.531,0.109-0.691
		c0.221-0.161,0.531-0.112,0.691,0.109l3.959,5.444c0.161,0.221,0.112,0.531-0.109,0.691C28.411,20.26,28.31,20.29,28.209,20.29z"/>
	<path fill="#7A8687" d="M17.321,0.99H7.423c-0.273,0-0.495-0.222-0.495-0.495l0,0C6.928,0.222,7.15,0,7.423,0h9.898
		c0.273,0,0.495,0.222,0.495,0.495l0,0C17.816,0.768,17.594,0.99,17.321,0.99z"/>
</g>
</svg>
