<?xml version="1.0" encoding="utf-8"?>
<!-- Generator: Adobe Illustrator 17.0.0, SVG Export Plug-In . SVG Version: 6.00 Build 0)  -->
<!DOCTYPE svg PUBLIC "-//W3C//DTD SVG 1.1//EN" "http://www.w3.org/Graphics/SVG/1.1/DTD/svg11.dtd">
<svg version="1.1" id="Layer_1" xmlns="http://www.w3.org/2000/svg" xmlns:xlink="http://www.w3.org/1999/xlink" x="0px" y="0px"
	 width="32.17px" height="24.769px" viewBox="0 0 32.17 24.769" enable-background="new 0 0 32.17 24.769" xml:space="preserve">
<g>
	<path fill="#92A2A3" d="M31.942,13.735l-1.44-2.107c-0.427-3.688-1.481-6.416-3.209-8.319C25.27,1.083,22.379,0,18.454,0
		c-0.553,0-1.136,0.022-1.733,0.066C10.034,0.555,6.453,8.258,5.036,12.262c-0.071,0.03-0.142,0.061-0.212,0.092
		C1.574,13.781-0.004,15.371,0,17.212c0.001,0.695,0.41,1.437,1.324,2.407c0.664,0.704,1.571,1.49,2.552,2.212
		c1.155,0.85,4.104,2.836,6.539,2.932c0.109,0.004,0.225,0.006,0.347,0.006c0,0,0,0,0,0c3.834,0,15.971-2.261,21.165-9.541
		C32.245,14.783,32.251,14.187,31.942,13.735z M25.407,15.266c-0.309,0.208-0.626,0.405-0.947,0.594
		c-0.7,0.412-1.423,0.785-2.161,1.125c-1.404,0.646-2.873,1.175-4.382,1.517c-1.373,0.311-2.834,0.503-4.234,0.262
		c-1.346-0.232-2.671-0.691-3.873-1.339c-1.197-0.645-2.423-1.456-3.292-2.519c0.543,0.239,1.09,0.465,1.643,0.68
		c0.355-1.223,0.766-2.435,1.261-3.609c0.481-1.142,1.044-2.24,1.863-3.177c0.964-1.104,2.16-2.025,3.421-2.765
		c1.06-0.622,2.194-1.111,3.397-1.37c-0.477,0.177-0.939,0.385-1.383,0.633c-1.327,0.741-2.521,1.74-3.529,2.876
		c-0.443,0.499-0.91,1.047-1.219,1.641c-0.343,0.658-0.564,1.365-0.746,2.082c-0.358,1.424-0.569,2.889-0.706,4.351
		c-0.014,0.152-0.009,0.139,0.142,0.18c0.096,0.026,0.191,0.052,0.287,0.078c0.173,0.051,0.348,0.093,0.523,0.135
		c0.363,0.087,0.728,0.163,1.094,0.238c2.198,0.47,5.125-0.069,6.937-0.472c1.831-0.407,3.649-0.874,5.476-1.299
		c-0.001,0,0.015-0.004,0.058-0.014c0.272-0.062,0.211-0.048,0.11-0.025c0.256-0.058,0.512-0.114,0.769-0.164
		C25.915,14.982,25.463,15.228,25.407,15.266z"/>
</g>
</svg>
