<?xml version="1.0" encoding="utf-8"?>
<!-- Generator: Adobe Illustrator 17.0.0, SVG Export Plug-In . SVG Version: 6.00 Build 0)  -->
<!DOCTYPE svg PUBLIC "-//W3C//DTD SVG 1.1//EN" "http://www.w3.org/Graphics/SVG/1.1/DTD/svg11.dtd">
<svg version="1.1" id="Layer_1" xmlns="http://www.w3.org/2000/svg" xmlns:xlink="http://www.w3.org/1999/xlink" x="0px" y="0px"
	 width="30.041px" height="24.294px" viewBox="0 0 30.041 24.294" enable-background="new 0 0 30.041 24.294" xml:space="preserve">
<g>
	<g>
		<path fill="#92A2A3" d="M8.119,24.294h5.306v-5.426h3.19v5.426h5.306V0H8.119V24.294z M15.989,2.863h3.19v3.19h-3.19V2.863z
			 M15.989,7.989h3.19v3.19h-3.19V7.989z M15.989,13.115h3.19v3.19h-3.19V13.115z M10.863,2.863h3.19v3.19h-3.19V2.863z
			 M10.863,7.989h3.19v3.19h-3.19V7.989z M10.863,13.115h3.19v3.19h-3.19V13.115z"/>
		<path fill="#92A2A3" d="M23.161,2.176v17.178h2.049v4.94h4.831V2.176H23.161z M27.543,17.021h-2.904v-2.904h2.904L27.543,17.021
			L27.543,17.021z M27.543,12.354h-2.904V9.45h2.904L27.543,12.354L27.543,12.354z M27.543,7.687h-2.904V4.783h2.904L27.543,7.687
			L27.543,7.687z"/>
		<path fill="#92A2A3" d="M0,24.294h4.831v-4.94H6.88V2.176H0V24.294z M2.498,4.783h2.904v2.904H2.498V4.783z M2.498,9.45h2.904
			v2.904H2.498V9.45z M2.498,14.117h2.904v2.904H2.498V14.117z"/>
	</g>
</g>
</svg>
