<?xml version="1.0" encoding="utf-8"?>
<!-- Generator: Adobe Illustrator 17.0.0, SVG Export Plug-In . SVG Version: 6.00 Build 0)  -->
<!DOCTYPE svg PUBLIC "-//W3C//DTD SVG 1.1//EN" "http://www.w3.org/Graphics/SVG/1.1/DTD/svg11.dtd">
<svg version="1.1" id="Layer_1" xmlns="http://www.w3.org/2000/svg" xmlns:xlink="http://www.w3.org/1999/xlink" x="0px" y="0px"
	 width="31.5px" height="37.177px" viewBox="2.543 0 31.5 37.177" enable-background="new 2.543 0 31.5 37.177"
	 xml:space="preserve">
<g>
	<circle fill="#92A2A3" cx="15.232" cy="3.129" r="3.129"/>
	<circle fill="#92A2A3" cx="21.862" cy="5.838" r="2.88"/>
	<path fill="#92A2A3" d="M22.865,10.092c-0.656-0.133-1.362-0.133-2.017-0.006c-1.077-1.3-2.559-2.197-4.526-2.336
		c-0.78-0.158-1.627-0.151-2.393,0.03c-5.203,0.609-6.892,6.631-6.415,11.223c0.207,1.985,3.336,2.006,3.127,0
		c-0.174-1.673-0.099-4.198,0.79-5.993c0,2.182,0,4.363,0,6.544c0,0.077,0.008,0.149,0.011,0.224
		c-0.002,0.035-0.01,0.065-0.01,0.101c0,5.193-0.009,10.383-0.224,15.572c-0.095,2.306,3.481,2.297,3.576,0
		c0.168-4.067,0.21-8.135,0.22-12.205c0.169,0.011,0.339,0.011,0.508,0.001c0.01,4.069,0.051,8.138,0.218,12.203
		c0.069,1.661,1.953,2.119,2.958,1.377c0.914,0.724,2.697,0.311,2.761-1.24c0.155-3.743,0.194-7.488,0.203-11.234
		c0.156,0.01,0.312,0.01,0.468,0.001c0.01,3.746,0.047,7.49,0.201,11.232c0.088,2.115,3.379,2.123,3.291,0
		c-0.197-4.776-0.205-9.553-0.205-14.333c0-0.148-0.02-0.283-0.05-0.413c-0.005-2.075-0.084-4.152-0.059-6.226
		c0.98,1.66,1.07,4.191,0.9,5.832c-0.193,1.845,2.688,1.826,2.878,0C29.526,16.134,27.896,10.447,22.865,10.092z"/>
</g>
</svg>
