<?xml version="1.0" encoding="utf-8"?>
<!-- Generator: Adobe Illustrator 17.0.0, SVG Export Plug-In . SVG Version: 6.00 Build 0)  -->
<!DOCTYPE svg PUBLIC "-//W3C//DTD SVG 1.1//EN" "http://www.w3.org/Graphics/SVG/1.1/DTD/svg11.dtd">
<svg version="1.1" id="Layer_1" xmlns="http://www.w3.org/2000/svg" xmlns:xlink="http://www.w3.org/1999/xlink" x="0px" y="0px"
	 width="21.297px" height="24.951px" viewBox="0 0 21.297 24.951" enable-background="new 0 0 21.297 24.951" xml:space="preserve">
<g>
	<path fill="#7A8687" d="M5.916,14.576c0.184-0.062,0.364-0.141,0.553-0.183c0.185-0.04,0.266-0.146,0.314-0.316
		c0.104-0.37,0.148-0.747,0.164-1.129c0.009-0.196-0.069-0.364-0.188-0.514c-1.09-1.379-1.664-2.966-1.801-4.7
		C4.829,6.1,4.98,4.489,5.676,2.973c0.751-1.636,2.024-2.592,3.803-2.876C9.593,0.078,9.721,0.096,9.814,0c0.52,0,1.04,0,1.559,0
		c0.121,0.093,0.272,0.072,0.408,0.093c2.019,0.316,3.36,1.468,4.021,3.37c0.8,2.3,0.777,4.612-0.092,6.9
		c-0.234,0.616-0.504,1.227-0.944,1.716c-0.461,0.513-0.465,1.063-0.357,1.677c0.07,0.397,0.22,0.676,0.659,0.722
		c0.102,0.011,0.199,0.065,0.299,0.099c0.007,0.193-0.176,0.215-0.282,0.296c-0.859,0.662-1.753,1.269-2.754,1.703
		c-0.53,0.23-1.076,0.42-1.654,0.421c-0.81,0.002-1.546-0.304-2.254-0.667c-0.858-0.44-1.638-1.003-2.407-1.581
		C5.955,14.705,5.899,14.664,5.916,14.576z M10.629,12.029c0.52-0.027,1.033-0.055,1.496-0.306c0.539-0.292,0.649-0.784,0.295-1.284
		c-0.329-0.464-0.797-0.717-1.341-0.804c-0.876-0.141-1.649,0.073-2.212,0.801c-0.373,0.482-0.252,0.99,0.285,1.284
		C9.614,11.973,10.125,12.009,10.629,12.029z M11.559,6.768c0.008,0.364,0.146,0.685,0.436,0.909
		c0.629,0.488,1.332,0.561,2.063,0.29c0.532-0.198,0.722-0.634,0.564-1.175c-0.213-0.728-1.095-1.322-1.86-1.253
		C12.075,5.602,11.545,6.143,11.559,6.768z M9.725,6.672C9.707,6.292,9.487,5.926,9.06,5.699C8.194,5.239,6.899,5.852,6.654,6.83
		C6.522,7.356,6.712,7.767,7.219,7.965c0.676,0.263,1.339,0.2,1.95-0.193C9.519,7.547,9.724,7.212,9.725,6.672z"/>
	<path fill="#92A2A3" d="M5.916,14.576c-0.017,0.087,0.039,0.128,0.1,0.175c0.769,0.578,1.549,1.141,2.407,1.581
		c0.708,0.363,1.444,0.67,2.254,0.667c0.578-0.002,1.124-0.191,1.654-0.421c1.001-0.435,1.895-1.042,2.754-1.703
		c0.106-0.081,0.289-0.103,0.282-0.296c0.22-0.07,0.431-0.033,0.637,0.054c0,3.437-0.001,6.874-0.001,10.31
		c-0.097,0.003-0.194,0.008-0.291,0.008c-3.381,0-6.761,0-10.142,0c-0.097,0-0.194-0.005-0.291-0.008
		c0-3.437-0.001-6.873-0.001-10.31C5.486,14.548,5.696,14.505,5.916,14.576z"/>
	<path fill="#7A8687" d="M16.004,24.942c0-3.437,0.001-6.874,0.001-10.31c0.119-0.218,0.29-0.241,0.51-0.156
		c0.504,0.192,1.01,0.379,1.52,0.554c0.222,0.076,0.386,0.191,0.449,0.425c0,3.162,0,6.325,0.001,9.487
		C17.658,24.941,16.831,24.942,16.004,24.942z"/>
	<path fill="#7A8687" d="M5.279,14.632c0,3.437,0.001,6.873,0.001,10.31c-0.827,0-1.654-0.001-2.482-0.001c0-3.162,0-6.325,0-9.487
		c0.064-0.233,0.228-0.349,0.45-0.425c0.51-0.175,1.016-0.363,1.521-0.554C4.988,14.391,5.16,14.412,5.279,14.632z"/>
	<path fill="#92A2A3" d="M2.798,15.454c0,3.162,0,6.325,0,9.487c-0.544,0.002-1.088,0.021-1.631,0.001
		c-0.636-0.023-1.142-0.53-1.147-1.165c-0.012-1.502-0.046-3.005,0.015-4.505c0.045-1.122,0.605-2.054,1.375-2.853
		C1.808,16.007,2.262,15.671,2.798,15.454z"/>
	<path fill="#92A2A3" d="M18.486,24.941c0-3.162,0-6.325-0.001-9.487c1.698,0.838,2.678,2.191,2.775,4.087
		c0.07,1.377,0.02,2.76,0.013,4.141c-0.004,0.754-0.522,1.261-1.277,1.267C19.492,24.953,18.989,24.944,18.486,24.941z"/>
</g>
</svg>
