<?xml version="1.0" encoding="utf-8"?>
<!-- Generator: Adobe Illustrator 17.0.0, SVG Export Plug-In . SVG Version: 6.00 Build 0)  -->
<!DOCTYPE svg PUBLIC "-//W3C//DTD SVG 1.1//EN" "http://www.w3.org/Graphics/SVG/1.1/DTD/svg11.dtd">
<svg version="1.1" id="Layer_1" xmlns="http://www.w3.org/2000/svg" xmlns:xlink="http://www.w3.org/1999/xlink" x="0px" y="0px"
	 width="27.545px" height="28.382px" viewBox="0 0 27.545 28.382" enable-background="new 0 0 27.545 28.382" xml:space="preserve">
<g>
	<path fill="#7A8687" d="M26.536,1.846c-0.231,0.231-0.605,0.231-0.837,0l-0.418-0.418c-0.23-0.23-0.23-0.605,0-0.836
		c0.231-0.231,0.605-0.231,0.837,0l0.418,0.417C26.767,1.241,26.767,1.615,26.536,1.846z"/>
	<path fill="#92A2A3" d="M27.372,1.009l-8.176,8.177c-0.231,0.23-0.605,0.231-0.837,0c-0.23-0.231-0.23-0.605,0-0.837l8.177-8.176
		c0.23-0.231,0.605-0.231,0.836,0C27.603,0.405,27.603,0.779,27.372,1.009z"/>
	<path fill="#7A8687" d="M23.383,3.612l-2.233-0.249c-0.178-0.02-0.356,0.042-0.483,0.17l-2.731,2.731
		c-0.074,0.075-0.126,0.166-0.153,0.268l-0.9,3.408c-0.068,0.258,0.045,0.53,0.277,0.663c0.231,0.133,0.524,0.094,0.713-0.094
		l5.889-5.889c0,0,0,0,0-0.001c0.231-0.23,0.231-0.605,0-0.836C23.656,3.678,23.521,3.621,23.383,3.612z"/>
	<path fill="#7A8687" d="M14.042,18.521c-0.161,0.162-0.408,0.222-0.634,0.133l-1.802-0.707c-0.304-0.119-0.454-0.462-0.335-0.766
		c0.119-0.304,0.462-0.455,0.767-0.335l1.802,0.706c0.304,0.12,0.454,0.463,0.335,0.767C14.144,18.397,14.098,18.465,14.042,18.521z
		"/>
	<path fill="#92A2A3" d="M11.927,16.815c-0.191-0.035-0.386,0.027-0.524,0.164l-1.254,1.254c-0.175,0.174-0.222,0.438-0.12,0.663
		l2.091,4.6c0.08,0.176,0.242,0.302,0.433,0.337c0.191,0.035,0.387-0.027,0.524-0.164l1.255-1.255
		c0.174-0.174,0.222-0.438,0.12-0.663l-2.09-4.599C12.279,16.976,12.117,16.85,11.927,16.815z"/>
	<path fill="#92A2A3" d="M21.443,15.552c-1.707-0.016-3.173-0.404-4.238-1.12c-0.768-0.517-1.077-1.037-1.099-1.076
		c-0.086-0.168-0.243-0.281-0.431-0.311s-0.375,0.036-0.509,0.171l-1.673,1.672c-0.225,0.225-0.232,0.587-0.016,0.82
		c0.11,0.118,2.735,2.89,7.514,3.116c0.172,0.008,0.332-0.058,0.446-0.172c0.08-0.081,0.138-0.184,0.161-0.302l0.418-2.091
		c0.035-0.172-0.01-0.352-0.12-0.488C21.785,15.633,21.619,15.553,21.443,15.552z"/>
	<path fill="#7A8687" d="M7.929,17.119c-0.165,0.007-0.32,0.083-0.427,0.21l-1.093,1.292l-2.306,1.494
		c-0.035,0.023-0.067,0.049-0.096,0.079l-3.834,3.834c-0.231,0.23-0.231,0.605,0,0.836l3.345,3.345
		c0.128,0.128,0.307,0.191,0.487,0.169c0.133-0.016,0.256-0.075,0.35-0.169c0.032-0.032,0.061-0.068,0.085-0.107l5.376-8.721
		c0.144-0.233,0.109-0.534-0.085-0.728l-1.359-1.359C8.255,17.176,8.094,17.113,7.929,17.119z"/>
	<path fill="#92A2A3" d="M19.477,10.577l-9.328,9.329c-0.111,0.111-0.262,0.173-0.418,0.173s-0.307-0.062-0.418-0.173L7.64,18.233
		c-0.158-0.158-0.214-0.392-0.143-0.605l0.418-1.254c0.029-0.087,0.078-0.166,0.143-0.231l9.878-9.878
		c0.154-0.154,0.38-0.21,0.589-0.148c0.209,0.063,0.365,0.236,0.409,0.449l0.704,3.477C19.678,10.235,19.617,10.437,19.477,10.577z"
		/>
	<path fill="#7A8687" d="M10.279,14.758l5.018-5.018c0.23-0.231,0.23-0.605,0-0.837l-5.854,5.854
		C9.673,14.99,10.048,14.99,10.279,14.758z"/>
</g>
</svg>
