<?xml version="1.0" encoding="utf-8"?>
<!-- Generator: Adobe Illustrator 17.0.0, SVG Export Plug-In . SVG Version: 6.00 Build 0)  -->
<!DOCTYPE svg PUBLIC "-//W3C//DTD SVG 1.1//EN" "http://www.w3.org/Graphics/SVG/1.1/DTD/svg11.dtd">
<svg version="1.1" id="Layer_1" xmlns="http://www.w3.org/2000/svg" xmlns:xlink="http://www.w3.org/1999/xlink" x="0px" y="0px"
	 width="33.489px" height="24.395px" viewBox="0 0 33.489 24.395" enable-background="new 0 0 33.489 24.395" xml:space="preserve">
<g>
	<path fill="#92A2A3" d="M32.764,7.237h-2.456c-0.187,0-0.367,0.072-0.502,0.202l-0.524,0.502c-0.884-2.045-2.152-4.067-3.864-6.161
		C24.492,0.649,23.123,0,21.661,0h-9.833c-1.462,0-2.831,0.649-3.756,1.78C6.305,3.939,5.063,5.913,4.2,7.933L3.683,7.438
		C3.548,7.309,3.368,7.237,3.181,7.237H0.725C0.325,7.237,0,7.561,0,7.962v1.679c0,0.383,0.298,0.7,0.68,0.724l2.524,0.159
		c-0.381,1.115-0.679,2.776-0.679,5.118c0,2.032,0.406,3.368,1.112,4.233v3.913c0,0.336,0.272,0.607,0.608,0.607h2.794
		c0.336,0,0.608-0.272,0.608-0.607v-2.43h18.195v2.43c0,0.336,0.272,0.607,0.608,0.607h2.794c0.336,0,0.608-0.272,0.608-0.607
		v-3.913c0.706-0.865,1.113-2.201,1.113-4.233c0-2.342-0.298-4.003-0.679-5.118l2.524-0.159c0.382-0.024,0.68-0.341,0.68-0.724
		V7.962C33.489,7.561,33.165,7.237,32.764,7.237z M10.145,3.476c0.415-0.507,1.028-0.798,1.683-0.798h9.833
		c0.655,0,1.268,0.291,1.683,0.798c1.198,1.465,2.144,2.866,2.875,4.262L7.253,7.742C7.968,6.377,8.92,4.974,10.145,3.476z
		 M8.078,18.387c-1.391,0-2.518-0.454-2.518-1.556c0-1.102,0.409-1.996,1.8-1.996s3.237,0.894,3.237,1.996
		S9.469,18.387,8.078,18.387z M19.384,18.157h-5.279c-0.796,0-1.443-0.647-1.443-1.443c0-0.223,0.181-0.404,0.404-0.404h7.358
		c0.223,0,0.404,0.181,0.404,0.404C20.828,17.51,20.18,18.157,19.384,18.157z M25.411,18.387c-1.391,0-2.518-0.454-2.518-1.556
		c0-1.102,1.846-1.996,3.237-1.996c1.391,0,1.8,0.894,1.8,1.996S26.802,18.387,25.411,18.387z"/>
</g>
</svg>
