<?xml version="1.0" encoding="utf-8"?>
<!-- Generator: Adobe Illustrator 17.0.0, SVG Export Plug-In . SVG Version: 6.00 Build 0)  -->
<!DOCTYPE svg PUBLIC "-//W3C//DTD SVG 1.1//EN" "http://www.w3.org/Graphics/SVG/1.1/DTD/svg11.dtd">
<svg version="1.1" id="Layer_1" xmlns="http://www.w3.org/2000/svg" xmlns:xlink="http://www.w3.org/1999/xlink" x="0px" y="0px"
	 width="29.704px" height="28.46px" viewBox="0 0 29.704 28.46" enable-background="new 0 0 29.704 28.46" xml:space="preserve">
<g>
	<g>
		<path fill="#92A2A3" d="M17.54,9.119L17.741,3.1c0-1.712-1.313-3.1-2.931-3.1c-1.618,0-2.931,1.387-2.931,3.1l0.203,6.064
			L0,15.679v3.14c0,0.344,0.278,0.623,0.623,0.623l11.689-3.39l0.251,6.174c0,0.531,0.09,1.032,0.246,1.475l-3.961,2.333l0,1.957
			c0,0.259,0.21,0.47,0.47,0.47l5.221-1.707h0.627v0l5.221,1.706c0.259,0,0.47-0.21,0.47-0.469l0-1.958l-4.032-2.373
			c0.148-0.433,0.232-0.919,0.232-1.434l0.252-6.198l11.772,3.414c0.344,0,0.622-0.278,0.622-0.623v-3.14L17.54,9.119z"/>
	</g>
</g>
</svg>
