<?xml version="1.0" encoding="utf-8"?>
<!-- Generator: Adobe Illustrator 17.0.0, SVG Export Plug-In . SVG Version: 6.00 Build 0)  -->
<!DOCTYPE svg PUBLIC "-//W3C//DTD SVG 1.1//EN" "http://www.w3.org/Graphics/SVG/1.1/DTD/svg11.dtd">
<svg version="1.1" id="Layer_1" xmlns="http://www.w3.org/2000/svg" xmlns:xlink="http://www.w3.org/1999/xlink" x="0px" y="0px"
	 width="29.667px" height="37.177px" viewBox="-11.895 0 29.667 37.177" enable-background="new -11.895 0 29.667 37.177"
	 xml:space="preserve">
<g>
	<g>
		<circle fill="#92A2A3" cx="2.878" cy="3.129" r="3.129"/>
		<path fill="#92A2A3" d="M3.968,7.751C3.188,7.592,2.341,7.599,1.575,7.78c-5.203,0.609-6.892,6.631-6.415,11.223
			c0.207,1.985,3.336,2.006,3.127,0c-0.174-1.673-0.099-4.198,0.79-5.993c0,2.182,0,4.363,0,6.544c0,0.077,0.008,0.149,0.011,0.224
			c-0.002,0.035-0.01,0.065-0.01,0.101c0,5.193-0.009,10.383-0.224,15.572c-0.095,2.307,3.481,2.297,3.576,0
			c0.168-4.067,0.21-8.135,0.22-12.205c0.169,0.011,0.339,0.011,0.508,0.001c0.01,4.069,0.051,8.138,0.218,12.203
			c0.095,2.297,3.672,2.307,3.576,0C6.737,30.261,6.73,25.071,6.73,19.878c0-0.161-0.022-0.308-0.054-0.449
			c-0.005-2.254-0.091-4.511-0.065-6.764c1.065,1.803,1.162,4.553,0.978,6.336c-0.21,2.004,2.92,1.984,3.127,0
			C11.204,14.315,9.434,8.137,3.968,7.751z"/>
	</g>
</g>
</svg>
