<?xml version="1.0" encoding="utf-8"?>
<!-- Generator: Adobe Illustrator 17.0.0, SVG Export Plug-In . SVG Version: 6.00 Build 0)  -->
<!DOCTYPE svg PUBLIC "-//W3C//DTD SVG 1.1//EN" "http://www.w3.org/Graphics/SVG/1.1/DTD/svg11.dtd">
<svg version="1.1" id="Layer_1" xmlns="http://www.w3.org/2000/svg" xmlns:xlink="http://www.w3.org/1999/xlink" x="0px" y="0px"
	 width="404.56px" height="108.322px" viewBox="0 0 404.56 108.322" enable-background="new 0 0 404.56 108.322"
	 xml:space="preserve">
<g>
	<polyline fill="#414144" points="34.692,46.657 34.746,46.661 34.825,46.682 34.692,46.657 	"/>
	<path fill="#FFFFFF" d="M73.213,13.639c0,0-5.2-4.995-6.512-5.991c-1.321-1.009-8.287-4.427-8.287-4.427
		C53.481,1.149,48.071,0,42.414,0C18.983,0,0,19.519,0,43.58c0,24.07,18.983,43.561,42.414,43.561
		c23.418,0,42.411-19.491,42.411-43.561C84.825,31.983,80.407,21.442,73.213,13.639"/>
	<polygon fill="#414144" points="51.921,60.322 51.791,60.313 51.677,60.322 	"/>
	<path fill="#35398B" d="M32.983,46.214l0.987-0.899l-0.782-1.218l-1.29-0.705l-0.212,0.051c-0.778,0.226-0.891,0.303-0.555,1.594
		C31.972,44.956,31.972,44.956,32.983,46.214 M26.864,41.768l0.243,0.056c-0.041-0.325-0.171-1.329-1.115-1.333
		c-0.568-0.021-0.904-0.039-1.436-0.128C24.719,40.606,25.168,41.273,26.864,41.768 M29.325,43.337l0.44-0.385
		c-0.166-0.068-0.355-0.256-0.735-0.773c-0.731-0.97-0.739-0.987-1.923-0.355C27.753,42.969,27.753,42.969,29.325,43.337
		 M15.645,33.949L15.645,33.949h-0.023H15.645 M50.814,27.578l0.917-1.034l-2.32-0.423l0.028,0.026
		C49.455,26.159,50.62,27.095,50.814,27.578 M26.245,12.332l0.194-0.124l0.105-0.116l0.086-0.132l-0.175,0.167l0.03-0.051
		l0.124-0.137l-0.209,0.188l0.047-0.077l-0.163,0.133l-0.192,0.252L26.245,12.332 M69.628,14.755l-0.01-0.124
		c-0.579-0.098-1.058-0.081-1.667,0.034c-0.521,0.111-0.882,0.248-1.25,0.479c0.295,0.218,0.688,0.478,0.981,0.692
		C69.618,15.507,69.628,15.114,69.628,14.755 M37.743,27.292c-1.431,0.568-2.436,2.107-4.222,1.906
		c0.239-0.675,0.705-1.269,0.729-2.03l1.025-0.684c-0.359,0.03-0.882-0.086-1.194,0.09c-0.015,0-0.743,0.641-1.434,1.303
		c-0.233,0.231-0.494,0.478-1.218,0.825c0.199-1.038,0.5-1.931,2.399-3.102c-0.479-0.286-0.846-0.735-1.397-0.893
		c1.171-1.226,1.666-1.312,3.508-0.643c0.423,1.617,0.756,2.643,1.859,3.207L37.743,27.292 M58.677,64.996
		c0.006-0.222,0.013-0.526,0.026-0.748c-0.064,0-6.642-0.252-10.605-4.038c-0.585,0.04-1.447,0.103-2.863,1.196
		c-0.359-0.244-0.825-0.56-1.179-0.808l0.961-1.013c-1.568-3.115-1.927-3.162-3.128-3.312c-2.278-0.32-2.278-0.32-2.957-2.508
		l-0.534-0.543c-1.468-1.44-3.316-2.154-5.26-2.893l-1.295,0.115c-1.13-0.68-1.611-0.979-2.628-1.619
		c-1.517,1.474-1.995,1.141-5.145-0.972c-0.021-0.258-0.91-1.788-2.611-2.818l-0.297-0.726c0.071-0.697,0.165-1.406,0.272-2.09
		c0.637-0.754,0.739-0.953,0.987-1.848c-0.782-0.079-1.28,0.233-2.207,1.327c-0.391-0.166-0.767-0.346-1.119-0.517
		c-0.143-0.551-0.553-2.478-0.271-4.465c0.684-0.333,0.684-0.333,2.055-2.897c2.479,0.09,2.479,0.09,3.959,1.094
		c0.365-0.192,0.857-0.474,1.224-0.675l0.378,1.214c0.481,0.047,0.575,0.047,1.323-0.231c-0.312,1.671,0.133,3.346,0.058,5.017
		c0.579-0.479,1.361-1.139,1.946-1.62l-0.615-1.333c0.229-0.808,0.372-1.239,1.072-2.508c-0.09,0.333-0.184,0.671-0.265,1.008
		c0.842-0.573,1.829-0.842,2.679-1.401c0.692-0.004,1.256,0.107,1.825,0.218c1.808-2.201,1.808-2.201,2.354-2.73
		c3.013-1.333,3.013-1.333,10.845-3.474c-0.731-0.154-0.731-0.154-1.324-0.85c0.286-0.301,0.662-0.701,0.953-1.026
		c-0.073-0.009-0.073-0.009-3.508,0.632c1.722-1.41,3.337-1.508,6.343-1.41c0.714,0.026,0.714,0.026,3.564-2.376
		c-0.793,0.051-1.019,0.111-2.096,0.56c0.139-0.645,0.139-0.645,0.436-1.286c-0.179-0.338-0.429-0.799-0.613-1.145
		c0.194-0.607,0.194-0.607,0.545-1.252c-0.895-0.444-1.658-0.402-2.607-0.196c-1.278-2.154-1.278-2.154-1.961-2.29
		c-0.009,0.385-0.034,0.88-0.053,1.248c-0.438-0.043-0.861-0.073-1.297-0.124c-1.632,1.888-3.581,3.453-5.243,5.32
		c-0.846-1.004-1.354-4.072-1.423-5.123c0.513-0.256,1.196-0.611,1.711-0.867l1.31-0.671c4.149-2.619,4.149-2.619,5.674-1.919
		c0.346-0.321,0.803-0.739,1.16-1.064l-0.284-0.808c-0.833,0.406-1.119,0.479-1.589,0.607c-0.466-0.923-0.152-1.914-0.269-2.867
		l-0.128-0.055c-1.636,3.034-1.636,3.034-3.412,2.944c-0.041-0.107-0.079-0.269-0.116-0.389c-0.782-0.068-0.852-0.107-1.645-0.41
		c-0.359,0.162-0.842,0.389-1.199,0.534c0.049-0.098,0.113-0.256,0.162-0.363c-0.22-0.055-0.526-0.111-0.765-0.149
		c-0.034-0.278-0.077-0.637-0.1-0.897c-3.527,1.795-3.561,1.76-4.066,1.154c1.634-0.329,1.793-0.363,3.658-1.256
		c-0.282-0.086-0.555-0.167-0.82-0.252l0.312-0.786c-0.35-0.128-0.692-0.239-1.011-0.359c-0.897,0.359-1.194,0.372-1.97,0.09
		c0.235-0.359,0.56-0.837,0.793-1.175c-0.487-0.133-0.763-0.214-2.226,0.132c0.1-0.209,0.256-0.491,0.387-0.666
		c-0.071-0.103-0.147-0.235-0.227-0.325c0.079-0.094,0.169-0.226,0.239-0.316c-0.276-0.026-0.639-0.013-0.893,0.03
		c0.188-0.214,0.442-0.479,0.637-0.697c-0.587,0.333-0.587,0.333-2.207,1.107c0.043-0.107,0.111-0.265,0.175-0.385
		c-0.65,0.068-0.65,0.068-2.136,0.906c-0.105-0.056-0.239-0.145-0.346-0.196c-0.359,0.111-0.359,0.111-2.799,1.944
		c0.049-0.141,0.109-0.256,0.184-0.389c-0.404,0.338-0.44,0.368-0.94,0.837c0.137-0.077,0.312-0.171,0.457-0.256
		c0.116,0.055,0.267,0.115,0.38,0.166c0.481-0.321,1.072-0.239,1.602-0.419c-0.137,0.209-0.316,0.5-0.453,0.709
		c0.444-0.342,0.444-0.342,1.115-0.624c0.286-0.026,0.338,0.026,0.376,0.094c-0.128,0.406-0.128,0.406-1.288,1.715
		c0.301,0.113,0.703,0.254,1.006,0.344c-10.892,9.935-10.892,9.935-11.932,11.46c-0.372,2.12-0.372,2.12-1.023,3.2
		c-0.389,0.82-0.637,1.457-0.882,2.098c-0.126,0.359-0.252,0.714-0.37,1.064c-0.154,0.774-0.166,1.556-0.419,2.295
		c0.12,0,0.295,0,0.423,0c-0.004-0.013,0.081-2.636,1.444-4.115c0.261-1,0.261-1,0.679-1.669c-1.186,4.908-1.186,4.908-1.235,5.583
		c-0.321,1.295-0.594,2.337-0.808,3.397c0.115,1.192,0.284,2.786,0.487,3.961c6.403,4.034,9.375,11.742,9.405,11.806
		c-4.393,6.991-0.714,9.029,1.726,10.388c0.158,0.628,0.329,1.256,0.511,1.867c0.987,1.034,4.16,3.88,6.824,4.653
		c0.951,4.884,3.728,8.623,8.247,11.131c0.254,0.282,0.513,0.534,0.776,0.782c1.607,0.5,3.074,1.397,4.724,1.79
		c0.068-0.124,0.16-0.316,0.242-0.453c-0.081-0.09-0.15-0.196-0.227-0.278l-0.848-0.419c-0.69-1.021-0.69-1.021-0.526-1.786
		l-1.117-0.248c0.981-0.252,1.233-0.282,2.207-0.256c-0.126-0.222-0.325-0.483-0.496-0.684c0.895-0.398,1.908-0.509,2.694-1.132
		c0.203,0.051,0.483,0.12,0.677,0.175l0.716-0.513c0.026-1.889,0.026-1.889-0.299-2.953c5.049-3.064,5.049-3.064,4.243-4.91
		C58.563,66.911,58.563,66.911,58.677,64.996 M54.324,15.421l0.019-0.196c-0.63,0.218-0.57-0.761-0.543-1.286
		c-0.547-0.393-0.716-0.662-0.701-1.107c-0.167-0.009-0.429-0.107-0.897-0.312c-0.545-0.235-0.743-0.243-0.923-0.188
		c-0.107-0.205-0.239-0.508-0.342-0.731c-0.261,0.188-0.455,0.329-0.904,0.667c-0.1-0.051-0.068-0.256,0.12-0.803l-0.047,0.026
		c-0.814,0.269-0.814,0.269-1.28,0.671c0.034,0.021,0.034,0.021,0.417,0.78c0.699-0.34,2.01,0.13,2.113,0.91
		c-0.761,0.904-1.158,1.455-1.675,2.344c-0.543-0.017-1.056,0.175-1.585,0.252c0.568,0.038,1.164,0.085,1.765,0.12l0.703,1.337
		c1.301-2.602,2.143-2.072,3.019-1.175C53.812,16.485,54.224,16.062,54.324,15.421 M45.362,11.601l0.233-0.196
		c-0.823-0.137-0.925-0.398-0.981-0.585c-0.16-0.004-0.35,0.047-0.863,0.248c-0.203-0.171-0.461-0.393-0.656-0.577
		c0-0.517,0-0.517-0.344-0.837l0.009,0.043c-0.047,0.393-0.466,0.59-0.485,0.987c-0.021,0.252,0.109,0.508,0.034,0.769
		c-0.047,0.149-0.109,0.278-0.179,0.423c-0.043-0.004-0.562,0.086-0.895,0.235C41.741,13.071,43.366,13.212,45.362,11.601
		 M42.751,9.653L42.751,9.653L42.704,9.61L42.751,9.653 M48.387,12.443l0.015,0.081c0.209-0.5,0.209-1.09,0.152-1.842l-0.023,0.06
		C48.421,10.952,48.24,11.323,48.387,12.443 M46.93,9.973l0.103-0.124c-0.265,0.184-0.549,0.273-0.829,0.432
		c0.015-0.265-0.098-0.496-0.053-0.752c0.032-0.237,0.092-0.359,0.263-0.577h-0.077c-0.252-0.039-0.509,0-0.741-0.039
		c-0.156-0.043-0.179-0.107-0.201-0.158c-0.705,0.278-0.985,0.398-1.216,0.536l0.051,0.182c1.237,0.026,1.237,0.026,1.299,0.038
		c-0.256,0.141-0.598,0.333-0.859,0.492c0.4,0.098,0.549,0.564,0.949,0.671c0.218,0.034,0.445,0.068,0.667,0.094
		C46.503,10.507,46.712,10.238,46.93,9.973 M48.733,9.734l0.038-0.03c0.021-0.201,0.026-0.474,0.03-0.671l-0.043,0.021
		c-0.41,0.196-0.662,0.32-0.662,0.32L48.065,9.43c-0.13,0.273-0.286,0.551-0.455,0.808C47.718,10.255,48.084,10.311,48.733,9.734
		 M49.127,7.747c0.156-0.132,0.156-0.132,0.269-0.773l-0.09,0.064c-1.487,0.876-1.487,0.876-1.782,0.983
		c0.727-0.107,0.727-0.107,1.068-0.265c-0.019,0.162-0.019,0.252,0.013,0.359C48.652,8.093,48.746,8.05,49.127,7.747 M56.303,7.58
		c0.092-0.308-0.254-0.573-0.331-0.56c-0.09,0.034-0.15,0.068-0.273,0.192c-0.282-0.137-0.842-0.019-1.385,0.115
		c-0.502,0.111-0.76,0.167-0.957,0.167c0.068,0.342,0.167,0.581,0.611,1.226c-1.506,1.184-1.991,1.517-3.004,1.487
		c0.167,0.03,0.338,0.111,0.786,0.359c1.335-0.423,1.474-0.474,1.816-0.872c0.192,0.013,0.333,0.09,0.596,0.308
		c0.197-0.278,0.472-0.654,0.677-0.919C55.583,9.037,55.942,8.67,56.303,7.58 M63.753,7.076l0.017-0.077
		c-0.739,0.637-0.81,0.692-1.171,0.466c-0.184-0.192-0.372-0.376-0.554-0.547c0.267-0.051,0.53-0.111,0.793-0.15l-0.886-0.466
		L61.89,6.32l-0.237,0.064l-0.075,0.034c-0.207,0.073-0.316,0.282-0.517,0.363c-0.175,0.051-0.363-0.124-0.534,0.013
		c-0.184,0.154-0.184,0.427-0.141,0.786c-0.314-0.047-0.521-0.355-0.859-0.308c-0.415,0.026-0.769,0-0.769,0
		c-0.098-0.047-0.406-0.132-1.043-0.444c-0.04,0.282-0.081,0.675-0.113,0.983c-0.141-0.03-0.239-0.056-0.609-0.372
		c-0.492,0.833-0.925,1.389-1.771,2.286c0.344,0.009,1.088,0.282,1.088,0.282c0.521,0.415,0.949,1.201,1.384,1.709
		c0.038,0.333,0.013,0.607-0.111,1.128c0.199,0.235,0.461,0.56,0.65,0.808c-0.261,0.624-0.515,1.179-0.754,1.658l-0.124,0.252
		c-0.07,0.726,0.444,1.299,0.528,1.978c0.63,0.145,0.962,0.889,1.683,0.863c0.551-0.03,0.538-0.466,0.47-0.949
		c0.876-0.175,3.944-1.927,5.948-4.546c-0.322,0.021-1.258-0.466-1.269-0.718c0.154-0.18,0.314-0.227,1.419-0.18
		c-0.314-0.466-0.65-0.923-0.987-1.354c0.19-0.017,0.393,0.026,0.872,0.186c-0.086-0.246-0.186-0.557-0.259-0.797
		c-1.502-1.325-2.006-2.966-2.006-2.966"/>
	<g>
		<path fill="#35398B" d="M42.418,60.736c-11.306,0-21.933-0.833-29.926-2.325c-5.766-1.081-11.616-3-11.616-5.986H0.869
			c0,0.696,0.455,3.119,11.706,5.222c7.974,1.496,18.57,2.329,29.842,2.329c11.281,0,21.878-0.833,29.843-2.329
			c11.251-2.102,11.691-4.525,11.691-5.222l0,0c0,2.987-5.837,4.905-11.597,5.986C64.347,59.903,53.724,60.736,42.418,60.736
			L42.418,60.736z"/>
	</g>
	<g>
		<g>
			<path fill="#35398B" d="M29.689,59.704c0,1.758-1.419,3.177-3.183,3.177c-1.752,0-3.166-1.419-3.166-3.177
				c0-1.75,1.414-3.177,3.166-3.177C28.27,56.527,29.689,57.954,29.689,59.704z"/>
		</g>
		<g>
			<path fill="#FFFFFF" d="M29.091,59.704c0,1.425-1.149,2.575-2.585,2.575c-1.416,0-2.574-1.149-2.574-2.575
				c0-1.421,1.158-2.57,2.574-2.57C27.941,57.134,29.091,58.283,29.091,59.704z"/>
		</g>
		<g>
			<path fill="#35398B" d="M28.58,59.704c0,1.143-0.93,2.07-2.075,2.07c-1.137,0-2.066-0.927-2.066-2.07
				c0-1.139,0.929-2.066,2.066-2.066C27.65,57.638,28.58,58.565,28.58,59.704z"/>
		</g>
	</g>
	<path fill="#FFFFFF" d="M194.53,67.851c-4.57,6.854-11.665,10.285-21.282,10.285c-6.946,0-12.815-2.175-17.605-6.52
		c-4.929-4.491-7.397-10.161-7.397-17.019c0-4.427,1.102-8.529,3.316-12.298c2.222-3.76,5.264-6.692,9.136-8.815
		c3.871-2.115,8.213-3.175,13.005-3.175c6.194,0,11.473,1.649,15.851,4.967c1.948,1.481,3.606,3.356,4.976,5.655l-4.63,2.876
		c-4.017-5.298-9.486-7.943-16.417-7.943c-5.378,0-9.916,1.701-13.622,5.093c-3.79,3.5-5.683,7.918-5.683,13.221
		c0,3.35,0.855,6.469,2.551,9.366c1.701,2.906,4.012,5.175,6.939,6.786c2.912,1.615,6.205,2.414,9.853,2.414
		c6.687,0,12.142-2.636,16.378-7.935L194.53,67.851z"/>
	<path fill="#FFFFFF" d="M244.833,53.793c0,5.14-0.487,9.208-1.47,12.216c-1.34,4.098-3.777,7.247-7.315,9.418
		c-2.948,1.799-6.64,2.709-11.073,2.709c-8.73,0-14.641-3.405-17.735-10.238c-1.478-3.209-2.209-8.05-2.209-14.502v-21.92h5.931
		v21.232c0,5.217,0.273,8.785,0.84,10.674c0.861,2.901,2.517,5.162,5.008,6.773c2.322,1.508,5.048,2.26,8.166,2.26
		c3.023,0,5.677-0.718,7.954-2.139c2.421-1.532,4.094-3.664,5.01-6.437c0.575-1.743,0.872-5.461,0.872-11.131V31.475h6.023V53.793z"
		/>
	<path fill="#FFFFFF" d="M303.167,76.965h-5.82v-7.811c-4.931,5.991-11.012,8.982-18.254,8.982c-6.576,0-12.114-2.367-16.622-7.106
		c-4.461-4.662-6.687-10.294-6.687-16.925c0-6.559,2.277-12.165,6.833-16.818c4.546-4.653,10.097-6.978,16.647-6.978
		c7.486,0,13.516,3.175,18.083,9.533v-8.366h5.82V76.965z M297.723,54.468c0-5.192-1.696-9.571-5.11-13.135
		c-3.406-3.555-7.704-5.337-12.87-5.337c-6.952,0-12.14,3.042-15.558,9.125c-1.636,2.899-2.457,5.959-2.457,9.181
		c0,3.226,0.82,6.294,2.457,9.195c1.637,2.91,3.841,5.183,6.61,6.807c2.765,1.624,5.739,2.44,8.905,2.44
		c3.205,0,6.226-0.799,9.097-2.414c2.859-1.611,5.068-3.794,6.615-6.555C296.954,61.018,297.723,57.916,297.723,54.468z"/>
	<path fill="#FFFFFF" d="M356.977,76.965h-7.576l-22.151-28.591h-3.517v28.591h-6.102V15.451h12.242
		c6.837,0,11.465,0.295,13.891,0.837c3.79,0.867,6.794,2.696,9.007,5.486c2.214,2.79,3.325,6.132,3.325,10.042
		c0,7.02-3.051,11.875-9.157,14.55c-2.936,1.299-6.991,1.974-12.165,2.008L356.977,76.965z M349.738,31.817
		c0-2.03-0.543-3.889-1.636-5.572c-1.09-1.675-2.555-2.876-4.406-3.628c-1.846-0.726-4.884-1.09-9.102-1.09h-10.862v20.822
		l10.614,0.094c7.02,0.051,11.601-1.594,13.755-4.935C349.196,35.829,349.738,33.915,349.738,31.817z"/>
	<g>
		<polygon fill="#FFFFFF" points="112.176,67.005 109.236,65.312 105.47,63.133 105.47,70.863 105.47,76.965 112.176,76.965 
			140.718,76.965 140.718,70.863 112.176,70.863 		"/>
		<polygon fill="#FFFFFF" points="112.176,15.451 105.47,15.451 105.47,21.557 105.47,29.338 109.236,27.163 112.176,25.463 
			112.176,21.557 140.718,21.557 140.718,15.451 		"/>
		<polygon fill="#FFFFFF" points="112.176,39.358 109.236,37.666 105.47,35.487 105.47,43.161 105.47,49.276 105.47,56.993 
			109.236,54.818 112.176,53.126 112.176,49.276 140.718,49.276 140.718,43.161 112.176,43.161 		"/>
	</g>
	<g>
		<polygon fill="#FFFFFF" points="376.017,39.358 373.077,37.666 369.308,35.487 369.308,43.161 369.308,49.276 369.308,56.993 
			373.077,54.818 376.017,53.126 376.017,49.276 404.56,49.276 404.56,43.161 376.017,43.161 		"/>
		<polygon fill="#FFFFFF" points="376.017,67.009 373.077,65.312 369.308,63.133 369.308,70.863 369.308,76.965 376.017,76.965 
			404.56,76.965 404.56,70.863 376.017,70.863 		"/>
		<polygon fill="#FFFFFF" points="376.017,15.451 369.308,15.451 369.308,21.557 369.308,29.338 373.077,27.163 376.017,25.463 
			376.017,21.557 404.56,21.557 404.56,15.451 		"/>
	</g>
	<g>
		<g>
			<path fill="#FFFFFF" d="M106.861,108.086V94.227h5.604c1.126,0,1.983,0.125,2.569,0.374s1.055,0.689,1.406,1.318
				c0.35,0.631,0.526,1.327,0.526,2.09c0,0.983-0.29,1.812-0.871,2.486c-0.58,0.674-1.477,1.102-2.69,1.285
				c0.443,0.233,0.778,0.463,1.008,0.69c0.489,0.491,0.952,1.107,1.388,1.843l2.199,3.772h-2.104l-1.673-2.884
				c-0.488-0.831-0.891-1.468-1.207-1.909c-0.316-0.441-0.599-0.75-0.849-0.927c-0.25-0.177-0.504-0.3-0.763-0.369
				c-0.19-0.043-0.5-0.065-0.932-0.065h-1.94v6.154H106.861z M108.533,100.344h3.595c0.764,0,1.362-0.086,1.793-0.26
				c0.431-0.173,0.759-0.45,0.983-0.833c0.224-0.38,0.336-0.795,0.336-1.242c0-0.656-0.217-1.195-0.651-1.617
				c-0.434-0.422-1.119-0.633-2.056-0.633h-4.001V100.344z"/>
			<path fill="#FFFFFF" d="M119.62,108.086V94.227h9.139v1.636h-7.466v4.244h6.992v1.626h-6.992v4.718h7.759v1.635H119.62z"/>
			<path fill="#FFFFFF" d="M129.976,108.086l4.854-13.859h1.802l5.173,13.859h-1.905l-1.474-4.197h-5.285l-1.388,4.197H129.976z
				 M133.623,102.396h4.285l-1.319-3.838c-0.402-1.166-0.702-2.124-0.897-2.874c-0.161,0.889-0.388,1.77-0.681,2.647
				L133.623,102.396z"/>
			<path fill="#FFFFFF" d="M142.572,103.634l1.578-0.151c0.074,0.693,0.248,1.261,0.521,1.707c0.273,0.444,0.697,0.803,1.272,1.078
				c0.575,0.274,1.221,0.411,1.94,0.411c0.638,0,1.201-0.103,1.69-0.311s0.852-0.493,1.09-0.856
				c0.238-0.363,0.358-0.758,0.358-1.186c0-0.435-0.115-0.815-0.345-1.139c-0.23-0.325-0.609-0.596-1.138-0.818
				c-0.339-0.145-1.089-0.369-2.25-0.676c-1.162-0.305-1.975-0.593-2.44-0.865c-0.604-0.346-1.054-0.777-1.35-1.29
				s-0.444-1.089-0.444-1.726c0-0.699,0.181-1.353,0.543-1.961c0.363-0.609,0.891-1.07,1.587-1.385s1.468-0.472,2.319-0.472
				c0.937,0,1.763,0.165,2.479,0.496c0.716,0.33,1.266,0.818,1.651,1.46c0.385,0.642,0.592,1.371,0.62,2.184l-1.604,0.132
				c-0.086-0.876-0.378-1.538-0.875-1.985c-0.497-0.448-1.231-0.671-2.203-0.671c-1.012,0-1.749,0.204-2.211,0.609
				c-0.463,0.407-0.694,0.897-0.694,1.47c0,0.499,0.164,0.909,0.491,1.229c0.322,0.322,1.163,0.651,2.522,0.989
				c1.359,0.337,2.292,0.631,2.798,0.884c0.736,0.372,1.279,0.842,1.629,1.412c0.351,0.571,0.526,1.228,0.526,1.972
				c0,0.736-0.192,1.432-0.577,2.084c-0.385,0.652-0.938,1.159-1.66,1.522c-0.722,0.363-1.534,0.544-2.436,0.544
				c-1.144,0-2.103-0.182-2.876-0.548c-0.773-0.365-1.379-0.915-1.819-1.649C142.826,105.391,142.595,104.56,142.572,103.634z"/>
			<path fill="#FFFFFF" d="M154.953,108.086V94.227h9.139v1.636h-7.466v4.244h6.992v1.626h-6.992v4.718h7.759v1.635H154.953z"/>
			<path fill="#FFFFFF" d="M172.61,102.651v-1.627l5.355-0.009v5.143c-0.822,0.718-1.67,1.258-2.544,1.62
				c-0.874,0.363-1.77,0.544-2.69,0.544c-1.242,0-2.37-0.291-3.384-0.874s-1.78-1.427-2.298-2.529
				c-0.517-1.102-0.775-2.335-0.775-3.696c0-1.35,0.257-2.607,0.772-3.777c0.514-1.169,1.254-2.038,2.22-2.604
				c0.966-0.568,2.077-0.85,3.336-0.85c0.914,0,1.74,0.161,2.479,0.486s1.318,0.777,1.737,1.356c0.42,0.581,0.739,1.336,0.957,2.269
				l-1.509,0.454c-0.19-0.706-0.425-1.26-0.707-1.664c-0.281-0.404-0.684-0.726-1.207-0.969s-1.103-0.364-1.742-0.364
				c-0.764,0-1.425,0.128-1.983,0.383c-0.557,0.255-1.007,0.591-1.349,1.007c-0.342,0.415-0.608,0.873-0.798,1.37
				c-0.322,0.857-0.483,1.787-0.483,2.789c0,1.235,0.194,2.269,0.582,3.102c0.388,0.831,0.952,1.449,1.694,1.852
				c0.741,0.404,1.529,0.605,2.362,0.605c0.724,0,1.431-0.152,2.121-0.459c0.69-0.305,1.213-0.631,1.569-0.978v-2.58H172.61z"/>
			<path fill="#FFFFFF" d="M188.724,94.227h1.673v8.008c0,1.392-0.144,2.499-0.431,3.318c-0.287,0.819-0.806,1.485-1.556,2
				c-0.75,0.514-1.734,0.77-2.953,0.77c-1.184,0-2.152-0.224-2.906-0.671c-0.753-0.448-1.29-1.094-1.612-1.943
				c-0.322-0.847-0.483-2.005-0.483-3.473v-8.008h1.672v7.999c0,1.203,0.102,2.09,0.306,2.661c0.204,0.57,0.555,1.009,1.052,1.318
				c0.497,0.309,1.105,0.463,1.823,0.463c1.23,0,2.107-0.307,2.63-0.918c0.523-0.611,0.784-1.786,0.784-3.525V94.227z"/>
			<path fill="#FFFFFF" d="M193.208,108.086V94.227h5.604c1.126,0,1.983,0.125,2.569,0.374c0.586,0.248,1.055,0.689,1.406,1.318
				c0.35,0.631,0.526,1.327,0.526,2.09c0,0.983-0.29,1.812-0.871,2.486c-0.58,0.674-1.477,1.102-2.69,1.285
				c0.443,0.233,0.778,0.463,1.008,0.69c0.489,0.491,0.952,1.107,1.388,1.843l2.198,3.772h-2.103l-1.673-2.884
				c-0.488-0.831-0.891-1.468-1.207-1.909c-0.316-0.441-0.599-0.75-0.849-0.927c-0.25-0.177-0.504-0.3-0.763-0.369
				c-0.19-0.043-0.5-0.065-0.932-0.065h-1.94v6.154H193.208z M194.88,100.344h3.595c0.764,0,1.362-0.086,1.793-0.26
				c0.431-0.173,0.759-0.45,0.983-0.833c0.224-0.38,0.336-0.795,0.336-1.242c0-0.656-0.217-1.195-0.651-1.617
				c-0.434-0.422-1.119-0.633-2.056-0.633h-4.001V100.344z"/>
			<path fill="#FFFFFF" d="M204.545,108.086l4.854-13.859h1.802l5.173,13.859h-1.906l-1.475-4.197h-5.284l-1.389,4.197H204.545z
				 M208.192,102.396h4.285l-1.319-3.838c-0.402-1.166-0.701-2.124-0.896-2.874c-0.161,0.889-0.388,1.77-0.681,2.647
				L208.192,102.396z"/>
			<path fill="#FFFFFF" d="M217.71,108.086V94.227h4.354c0.984,0,1.733,0.067,2.25,0.199c0.724,0.184,1.342,0.514,1.854,0.993
				c0.666,0.618,1.165,1.407,1.495,2.368c0.331,0.961,0.496,2.06,0.496,3.294c0,1.053-0.112,1.985-0.336,2.799
				c-0.224,0.812-0.511,1.486-0.863,2.019c-0.35,0.533-0.734,0.951-1.15,1.257c-0.417,0.305-0.92,0.537-1.508,0.695
				c-0.59,0.157-1.267,0.236-2.031,0.236H217.71z M219.383,106.451h2.699c0.833,0,1.487-0.085,1.961-0.255
				c0.474-0.17,0.853-0.41,1.135-0.718c0.396-0.435,0.705-1.021,0.927-1.755c0.222-0.734,0.331-1.624,0.331-2.67
				c0-1.45-0.216-2.564-0.65-3.341c-0.434-0.779-0.961-1.3-1.582-1.564c-0.449-0.19-1.169-0.284-2.164-0.284h-2.655V106.451z"/>
			<path fill="#FFFFFF" d="M229.954,101.336c0-2.3,0.563-4.101,1.69-5.402c1.127-1.303,2.58-1.953,4.362-1.953
				c1.167,0,2.219,0.305,3.156,0.916c0.938,0.611,1.652,1.464,2.143,2.558c0.491,1.092,0.737,2.332,0.737,3.72
				c0,1.406-0.258,2.662-0.777,3.771c-0.517,1.11-1.25,1.949-2.198,2.52c-0.949,0.571-1.972,0.855-3.07,0.855
				c-1.191,0-2.254-0.316-3.19-0.944c-0.937-0.631-1.647-1.491-2.13-2.582C230.194,103.706,229.954,102.553,229.954,101.336z
				 M231.678,101.364c0,1.671,0.41,2.987,1.229,3.948c0.819,0.96,1.846,1.441,3.082,1.441c1.259,0,2.295-0.486,3.109-1.456
				c0.812-0.97,1.22-2.348,1.22-4.131c0-1.128-0.175-2.113-0.521-2.954c-0.348-0.84-0.857-1.494-1.526-1.957
				c-0.67-0.463-1.421-0.694-2.255-0.694c-1.184,0-2.202,0.445-3.056,1.337C232.104,97.79,231.678,99.278,231.678,101.364z"/>
			<path fill="#FFFFFF" d="M244.221,108.086V94.227h5.604c1.127,0,1.984,0.125,2.569,0.374c0.586,0.248,1.055,0.689,1.406,1.318
				c0.351,0.631,0.526,1.327,0.526,2.09c0,0.983-0.29,1.812-0.871,2.486c-0.581,0.674-1.477,1.102-2.69,1.285
				c0.443,0.233,0.779,0.463,1.009,0.69c0.488,0.491,0.951,1.107,1.388,1.843l2.199,3.772h-2.104l-1.673-2.884
				c-0.488-0.831-0.891-1.468-1.206-1.909c-0.317-0.441-0.6-0.75-0.849-0.927c-0.251-0.177-0.505-0.3-0.763-0.369
				c-0.19-0.043-0.5-0.065-0.931-0.065h-1.94v6.154H244.221z M245.894,100.344h3.595c0.764,0,1.362-0.086,1.794-0.26
				c0.431-0.173,0.759-0.45,0.982-0.833c0.224-0.38,0.336-0.795,0.336-1.242c0-0.656-0.217-1.195-0.65-1.617
				c-0.434-0.422-1.12-0.633-2.057-0.633h-4.001V100.344z"/>
			<path fill="#FFFFFF" d="M255.559,108.086l4.854-13.859h1.802l5.173,13.859h-1.906l-1.475-4.197h-5.284l-1.389,4.197H255.559z
				 M259.206,102.396h4.285l-1.319-3.838c-0.402-1.166-0.701-2.124-0.896-2.874c-0.161,0.889-0.388,1.77-0.681,2.647
				L259.206,102.396z"/>
			<path fill="#FFFFFF" d="M272.656,108.086V94.227h4.354c0.984,0,1.733,0.067,2.25,0.199c0.724,0.184,1.342,0.514,1.854,0.993
				c0.666,0.618,1.165,1.407,1.495,2.368c0.331,0.961,0.496,2.06,0.496,3.294c0,1.053-0.112,1.985-0.336,2.799
				c-0.224,0.812-0.511,1.486-0.863,2.019c-0.35,0.533-0.734,0.951-1.15,1.257c-0.417,0.305-0.92,0.537-1.508,0.695
				c-0.59,0.157-1.267,0.236-2.031,0.236H272.656z M274.329,106.451h2.699c0.833,0,1.487-0.085,1.961-0.255
				c0.474-0.17,0.853-0.41,1.135-0.718c0.396-0.435,0.705-1.021,0.927-1.755c0.222-0.734,0.331-1.624,0.331-2.67
				c0-1.45-0.216-2.564-0.65-3.341c-0.434-0.779-0.961-1.3-1.582-1.564c-0.449-0.19-1.169-0.284-2.164-0.284h-2.655V106.451z"/>
			<path fill="#FFFFFF" d="M285.443,108.086V94.227h9.139v1.636h-7.466v4.244h6.992v1.626h-6.992v4.718h7.759v1.635H285.443z"/>
			<path fill="#FFFFFF" d="M297.117,108.086V94.227h1.672v12.224h6.225v1.635H297.117z"/>
			<path fill="#FFFFFF" d="M311.29,108.086V94.227h9.139v1.636h-7.466v4.244h6.992v1.626h-6.992v4.718h7.759v1.635H311.29z"/>
			<path fill="#FFFFFF" d="M332.052,103.227l1.673,0.463c-0.35,1.506-0.981,2.655-1.892,3.446c-0.911,0.791-2.024,1.186-3.341,1.186
				c-1.362,0-2.47-0.304-3.324-0.912s-1.503-1.489-1.948-2.642c-0.445-1.154-0.668-2.392-0.668-3.715
				c0-1.444,0.252-2.702,0.754-3.777c0.502-1.074,1.219-1.89,2.146-2.448c0.929-0.558,1.95-0.836,3.066-0.836
				c1.263,0,2.328,0.353,3.189,1.059c0.863,0.705,1.463,1.699,1.803,2.977l-1.647,0.425c-0.293-1.007-0.718-1.741-1.276-2.202
				c-0.558-0.459-1.259-0.689-2.104-0.689c-0.971,0-1.784,0.255-2.436,0.765s-1.111,1.195-1.375,2.057
				c-0.264,0.859-0.396,1.747-0.396,2.661c0,1.177,0.157,2.207,0.47,3.086c0.313,0.878,0.8,1.535,1.461,1.971
				c0.66,0.435,1.376,0.652,2.146,0.652c0.937,0,1.73-0.297,2.38-0.889C331.383,105.272,331.823,104.393,332.052,103.227z"/>
			<path fill="#FFFFFF" d="M344.079,94.227h1.673v8.008c0,1.392-0.144,2.499-0.431,3.318c-0.288,0.819-0.807,1.485-1.557,2
				c-0.75,0.514-1.734,0.77-2.953,0.77c-1.184,0-2.152-0.224-2.905-0.671c-0.753-0.448-1.29-1.094-1.613-1.943
				c-0.322-0.847-0.483-2.005-0.483-3.473v-8.008h1.673v7.999c0,1.203,0.102,2.09,0.307,2.661c0.204,0.57,0.554,1.009,1.052,1.318
				c0.497,0.309,1.104,0.463,1.823,0.463c1.23,0,2.107-0.307,2.63-0.918c0.523-0.611,0.784-1.786,0.784-3.525V94.227z"/>
			<path fill="#FFFFFF" d="M347.149,108.086l4.854-13.859h1.802l5.173,13.859h-1.906l-1.475-4.197h-5.284l-1.389,4.197H347.149z
				 M350.796,102.396h4.285l-1.319-3.838c-0.402-1.166-0.701-2.124-0.896-2.874c-0.161,0.889-0.388,1.77-0.681,2.647
				L350.796,102.396z"/>
			<path fill="#FFFFFF" d="M360.314,108.086V94.227h4.354c0.984,0,1.733,0.067,2.25,0.199c0.724,0.184,1.342,0.514,1.854,0.993
				c0.666,0.618,1.165,1.407,1.495,2.368c0.331,0.961,0.496,2.06,0.496,3.294c0,1.053-0.112,1.985-0.336,2.799
				c-0.224,0.812-0.511,1.486-0.863,2.019c-0.35,0.533-0.734,0.951-1.15,1.257c-0.417,0.305-0.92,0.537-1.508,0.695
				c-0.59,0.157-1.267,0.236-2.031,0.236H360.314z M361.987,106.451h2.699c0.833,0,1.487-0.085,1.961-0.255
				c0.474-0.17,0.853-0.41,1.135-0.718c0.396-0.435,0.705-1.021,0.927-1.755s0.331-1.624,0.331-2.67c0-1.45-0.216-2.564-0.65-3.341
				c-0.434-0.779-0.961-1.3-1.582-1.564c-0.449-0.19-1.169-0.284-2.164-0.284h-2.655V106.451z"/>
			<path fill="#FFFFFF" d="M372.558,101.336c0-2.3,0.563-4.101,1.69-5.402c1.127-1.303,2.58-1.953,4.362-1.953
				c1.167,0,2.219,0.305,3.156,0.916c0.938,0.611,1.652,1.464,2.143,2.558c0.491,1.092,0.737,2.332,0.737,3.72
				c0,1.406-0.258,2.662-0.777,3.771c-0.517,1.11-1.25,1.949-2.198,2.52c-0.949,0.571-1.972,0.855-3.07,0.855
				c-1.191,0-2.254-0.316-3.19-0.944c-0.937-0.631-1.647-1.491-2.13-2.582C372.798,103.706,372.558,102.553,372.558,101.336z
				 M374.282,101.364c0,1.671,0.41,2.987,1.229,3.948c0.819,0.96,1.846,1.441,3.082,1.441c1.259,0,2.295-0.486,3.109-1.456
				c0.812-0.97,1.22-2.348,1.22-4.131c0-1.128-0.175-2.113-0.521-2.954c-0.348-0.84-0.857-1.494-1.526-1.957
				c-0.67-0.463-1.421-0.694-2.255-0.694c-1.184,0-2.202,0.445-3.056,1.337C374.708,97.79,374.282,99.278,374.282,101.364z"/>
			<path fill="#FFFFFF" d="M386.825,108.086V94.227h5.604c1.127,0,1.984,0.125,2.569,0.374c0.586,0.248,1.055,0.689,1.406,1.318
				c0.351,0.631,0.526,1.327,0.526,2.09c0,0.983-0.29,1.812-0.871,2.486c-0.581,0.674-1.477,1.102-2.69,1.285
				c0.443,0.233,0.779,0.463,1.009,0.69c0.488,0.491,0.951,1.107,1.388,1.843l2.199,3.772h-2.104l-1.673-2.884
				c-0.488-0.831-0.891-1.468-1.206-1.909c-0.317-0.441-0.6-0.75-0.849-0.927c-0.251-0.177-0.505-0.3-0.763-0.369
				c-0.19-0.043-0.5-0.065-0.931-0.065h-1.94v6.154H386.825z M388.498,100.344h3.595c0.764,0,1.362-0.086,1.794-0.26
				c0.431-0.173,0.759-0.45,0.983-0.833c0.224-0.38,0.336-0.795,0.336-1.242c0-0.656-0.217-1.195-0.65-1.617
				c-0.434-0.422-1.12-0.633-2.057-0.633h-4.001V100.344z"/>
		</g>
	</g>
</g>
</svg>
