<?xml version="1.0" encoding="utf-8"?>
<!-- Generator: Adobe Illustrator 17.0.0, SVG Export Plug-In . SVG Version: 6.00 Build 0)  -->
<!DOCTYPE svg PUBLIC "-//W3C//DTD SVG 1.1//EN" "http://www.w3.org/Graphics/SVG/1.1/DTD/svg11.dtd">
<svg version="1.1" id="Layer_1" xmlns="http://www.w3.org/2000/svg" xmlns:xlink="http://www.w3.org/1999/xlink" x="0px" y="0px"
	 width="499.9px" height="138.734px" viewBox="0 0 499.9 138.734" enable-background="new 0 0 499.9 138.734" xml:space="preserve">
<g>
	<g>
		<path fill="#35398B" d="M67.305,0h3.563l-3.213,10.175h-2.945L67.305,0z M74.678,0h3.605l-3.605,10.175h-2.986L74.678,0z"/>
		<path fill="#35398B" d="M85.746,26.206h14.129v3.028H82.388V1.675h16.724v3.028H85.746v8.897h11.884v3.028H85.746V26.206z"/>
		<path fill="#35398B" d="M120.245,29.234h-1.545l-6.941-16.456c-0.961-2.266-1.923-4.731-2.884-7.395h-0.164
			c0.192,3.83,0.288,7.339,0.288,10.524v13.327h-3.357V1.675h4.84l6.488,15.591c0.742,1.785,1.558,3.935,2.451,6.447h0.103
			c0.988-2.788,1.805-4.936,2.451-6.447l6.488-15.591h4.84v27.559h-3.357V15.907c0-3.116,0.096-6.624,0.288-10.524h-0.165
			c-1.016,2.815-1.977,5.279-2.883,7.395L120.245,29.234z"/>
		<path fill="#35398B" d="M143.664,29.234h-3.357V1.675h7.633c1.138,0,2.191,0.069,3.158,0.206c0.967,0.137,1.854,0.35,2.664,0.638
			c1.646,0.591,2.894,1.474,3.744,2.648s1.276,2.619,1.276,4.335c0,1.401-0.278,2.634-0.833,3.698
			c-0.556,1.064-1.361,1.953-2.417,2.667c-1.056,0.714-2.342,1.253-3.857,1.617c-1.515,0.363-3.232,0.546-5.152,0.546
			c-0.919,0-1.872-0.042-2.859-0.124V29.234z M143.664,14.836c0.453,0.055,0.926,0.097,1.421,0.124
			c0.494,0.028,0.961,0.042,1.401,0.042c1.579,0,2.925-0.124,4.037-0.371c1.112-0.248,2.019-0.609,2.719-1.082
			c0.701-0.474,1.208-1.05,1.524-1.73c0.315-0.68,0.474-1.451,0.474-2.318c0-1.071-0.258-1.95-0.772-2.635
			c-0.515-0.687-1.247-1.208-2.194-1.566c-0.591-0.22-1.27-0.374-2.039-0.464c-0.769-0.09-1.662-0.134-2.678-0.134h-3.892V14.836z"
			/>
		<path fill="#35398B" d="M167.721,17.824v11.41h-3.357V1.675h7.139c1.207,0,2.232,0.045,3.076,0.134
			c0.843,0.09,1.615,0.231,2.315,0.422c1.919,0.523,3.387,1.411,4.402,2.667c1.015,1.256,1.523,2.826,1.523,4.706
			c0,1.113-0.179,2.108-0.536,2.988c-0.357,0.878-0.858,1.64-1.504,2.286c-0.645,0.645-1.418,1.174-2.317,1.586
			c-0.899,0.411-1.899,0.714-2.997,0.905v0.082l8.156,11.782h-3.357l-8.486-11.41H167.721z M167.721,4.703v10.092h3.316
			c1.03,0,1.908-0.034,2.637-0.103c0.728-0.069,1.38-0.193,1.956-0.371c1.167-0.357,2.067-0.928,2.699-1.71
			c0.631-0.783,0.947-1.805,0.947-3.068c-0.014-1.18-0.316-2.131-0.906-2.853c-0.591-0.721-1.408-1.239-2.451-1.556
			c-0.494-0.151-1.085-0.26-1.772-0.329c-0.686-0.069-1.559-0.103-2.616-0.103H167.721z"/>
		<path fill="#35398B" d="M192.684,26.206h14.129v3.028h-17.486V1.675h16.724v3.028h-13.367v8.897h11.884v3.028h-11.884V26.206z"/>
		<path fill="#35398B" d="M215.258,8.967c0,0.81,0.164,1.48,0.493,2.008c0.328,0.529,0.77,0.964,1.325,1.308
			c0.555,0.344,1.198,0.624,1.931,0.844c0.732,0.22,1.496,0.426,2.29,0.618c1.068,0.26,2.119,0.548,3.153,0.865
			c1.034,0.315,1.955,0.752,2.762,1.308c0.808,0.556,1.462,1.281,1.962,2.173c0.5,0.893,0.75,2.039,0.75,3.439
			c0,1.429-0.271,2.661-0.812,3.698c-0.542,1.037-1.29,1.888-2.245,2.553c-0.956,0.666-2.086,1.161-3.39,1.483
			c-1.305,0.323-2.732,0.485-4.284,0.485c-0.714,0-1.445-0.045-2.193-0.134c-0.749-0.09-1.462-0.21-2.142-0.361
			s-1.294-0.323-1.843-0.515c-0.55-0.193-0.982-0.384-1.297-0.577v-3.068c0.494,0.247,1.05,0.474,1.668,0.68
			c0.618,0.206,1.256,0.38,1.916,0.525c0.659,0.144,1.325,0.258,1.998,0.34c0.672,0.082,1.304,0.123,1.894,0.123
			c0.961,0,1.878-0.082,2.75-0.247c0.872-0.164,1.637-0.439,2.296-0.823c0.659-0.385,1.181-0.91,1.566-1.577
			c0.385-0.665,0.577-1.499,0.577-2.502c0-0.824-0.168-1.504-0.504-2.039c-0.337-0.536-0.786-0.979-1.35-1.329
			c-0.563-0.351-1.212-0.636-1.946-0.855c-0.735-0.22-1.507-0.426-2.318-0.618c-1.071-0.247-2.118-0.525-3.141-0.833
			c-1.023-0.309-1.936-0.739-2.739-1.288c-0.804-0.548-1.449-1.256-1.936-2.121c-0.488-0.865-0.731-1.97-0.731-3.316
			c0-1.4,0.256-2.605,0.768-3.614c0.512-1.009,1.205-1.843,2.08-2.503c0.875-0.659,1.881-1.146,3.022-1.461
			c1.139-0.317,2.354-0.475,3.645-0.475c1.469,0,2.839,0.141,4.109,0.423c1.27,0.281,2.434,0.648,3.491,1.102v3.11
			c-1.14-0.481-2.318-0.872-3.532-1.174c-1.215-0.302-2.516-0.46-3.903-0.474c-1.043,0-1.95,0.113-2.719,0.34
			c-0.769,0.226-1.408,0.548-1.915,0.968c-0.509,0.418-0.886,0.926-1.133,1.524S215.258,8.239,215.258,8.967z"/>
		<path fill="#35398B" d="M233.074,29.234L244.3,1.675h2.904l11.225,27.559h-3.646l-3.291-8.3H239.97l-3.291,8.3H233.074z
			 M245.72,5.959c-1.229,3.43-2.404,6.547-3.522,9.351l-1.03,2.595h9.134l-1.045-2.594c-1.131-2.854-2.283-5.971-3.454-9.353H245.72
			z"/>
		<path fill="#35398B" d="M282.765,4.147c-1.543,0-2.986,0.243-4.327,0.731c-1.342,0.487-2.506,1.215-3.493,2.183
			c-0.987,0.968-1.766,2.17-2.335,3.605c-0.57,1.435-0.855,3.107-0.855,5.016c0,1.894,0.264,3.54,0.793,4.932
			c0.528,1.394,1.278,2.548,2.252,3.461c0.972,0.913,2.144,1.589,3.513,2.028c1.369,0.44,2.895,0.659,4.576,0.659
			c0.459,0,0.945-0.023,1.459-0.071c0.515-0.048,1.032-0.117,1.553-0.206s1.029-0.193,1.523-0.309
			c0.493-0.117,0.934-0.244,1.324-0.382v2.967c-0.81,0.315-1.751,0.559-2.822,0.731s-2.17,0.258-3.295,0.258
			c-2.293,0-4.325-0.32-6.096-0.958c-1.772-0.638-3.258-1.554-4.459-2.749c-1.202-1.195-2.112-2.654-2.729-4.376
			c-0.618-1.724-0.927-3.677-0.927-5.861c0-2.141,0.326-4.111,0.978-5.911c0.652-1.799,1.593-3.343,2.822-4.634
			c1.229-1.291,2.719-2.297,4.47-3.017c1.75-0.721,3.718-1.082,5.901-1.082c0.577,0,1.146,0.025,1.71,0.072
			c0.563,0.049,1.102,0.117,1.616,0.206c0.515,0.09,0.992,0.196,1.432,0.319c0.439,0.124,0.816,0.255,1.132,0.391v2.967
			c-0.834-0.275-1.745-0.505-2.732-0.691C284.76,4.239,283.766,4.147,282.765,4.147z"/>
		<path fill="#35398B" d="M318.942,15.475c0,2.087-0.3,4.002-0.899,5.747c-0.599,1.743-1.458,3.248-2.575,4.51
			c-1.117,1.264-2.462,2.249-4.035,2.956c-1.574,0.707-3.334,1.061-5.282,1.061c-2.016,0-3.821-0.355-5.415-1.061
			c-1.593-0.707-2.942-1.692-4.045-2.956c-1.104-1.262-1.948-2.767-2.534-4.51c-0.586-1.745-0.878-3.66-0.878-5.747
			c0-2.1,0.303-4.027,0.909-5.777c0.606-1.751,1.464-3.257,2.575-4.521c1.11-1.264,2.455-2.248,4.035-2.956
			c1.58-0.707,3.351-1.061,5.313-1.061c2.003,0,3.797,0.355,5.384,1.061c1.587,0.708,2.932,1.692,4.035,2.956
			c1.104,1.264,1.948,2.77,2.534,4.521C318.649,11.449,318.942,13.375,318.942,15.475z M315.605,15.475
			c0-1.854-0.243-3.488-0.729-4.903c-0.486-1.413-1.156-2.595-2.009-3.542c-0.854-0.947-1.86-1.665-3.019-2.152
			c-1.159-0.488-2.405-0.731-3.738-0.731c-1.332,0-2.578,0.243-3.737,0.731c-1.159,0.487-2.166,1.205-3.019,2.152
			c-0.854,0.947-1.524,2.129-2.01,3.542c-0.486,1.415-0.729,3.049-0.729,4.903s0.247,3.484,0.739,4.892
			c0.493,1.407,1.166,2.585,2.02,3.532c0.853,0.947,1.859,1.661,3.019,2.142c1.159,0.481,2.412,0.72,3.759,0.72
			c1.333,0,2.572-0.239,3.717-0.72c1.145-0.481,2.145-1.195,2.999-2.142c0.853-0.947,1.523-2.125,2.009-3.532
			C315.362,18.96,315.605,17.329,315.605,15.475z"/>
		<path fill="#35398B" d="M339.271,17.041c1.689,2.43,3.357,4.93,5.005,7.496h0.123c-0.179-2.677-0.267-5.409-0.267-8.197V1.675
			h3.378v27.559h-3.357l-10.813-15.366c-1.867-2.677-3.536-5.176-5.005-7.496h-0.124c0.179,2.513,0.268,5.444,0.268,8.794v14.068
			h-3.357V1.675h3.337L339.271,17.041z"/>
	</g>
	<g>
		<path fill="#35398B" d="M47.316,35.563c-5.089,0-9.846,0.805-14.27,2.411c-4.425,1.608-8.264,4.008-11.519,7.201
			c-3.256,3.192-5.824,7.155-7.704,11.887s-2.819,10.246-2.819,16.54c0,6.249,0.87,11.673,2.613,16.267
			c1.742,4.597,4.216,8.401,7.426,11.411c3.209,3.012,7.071,5.243,11.586,6.692c4.515,1.449,9.546,2.173,15.093,2.173
			c1.512,0,3.117-0.079,4.813-0.237c1.696-0.158,3.402-0.385,5.122-0.68c1.72-0.294,3.392-0.634,5.02-1.02
			c1.627-0.384,3.082-0.802,4.366-1.256v9.782c-2.672,1.042-5.773,1.844-9.305,2.411c-3.532,0.566-7.156,0.849-10.868,0.849
			c-7.563,0-14.264-1.053-20.106-3.158c-5.842-2.107-10.744-5.128-14.706-9.068c-3.963-3.94-6.962-8.751-9-14.434
			C1.019,87.651,0,81.209,0,74.009c0-7.064,1.075-13.562,3.227-19.495c2.15-5.931,5.252-11.026,9.306-15.282
			c4.052-4.256,8.966-7.574,14.739-9.951c5.774-2.378,12.261-3.567,19.461-3.567c1.902,0,3.781,0.08,5.638,0.238
			c1.856,0.159,3.634,0.385,5.332,0.68c1.699,0.294,3.272,0.645,4.721,1.053c1.449,0.407,2.694,0.838,3.736,1.291v9.781
			c-2.751-0.905-5.755-1.664-9.01-2.276C53.895,35.869,50.616,35.563,47.316,35.563z"/>
		<path fill="#35398B" d="M201.316,62.326h-0.815c-2.491,0-4.936,0.227-7.336,0.68c-2.401,0.453-4.653,1.143-6.759,2.071
			c-2.105,0.929-4.007,2.072-5.706,3.43c-1.698,1.359-3.114,2.967-4.245,4.823v44.967h-10.529v-64.53h8.151l2.038,10.257h0.204
			c1.042-1.675,2.32-3.237,3.838-4.687c1.516-1.449,3.226-2.716,5.128-3.803c1.902-1.087,3.984-1.936,6.249-2.547
			c2.264-0.612,4.641-0.918,7.133-0.918c0.452,0,0.917,0.012,1.393,0.034c0.475,0.023,0.893,0.058,1.256,0.102V62.326z"/>
		<path fill="#35398B" d="M242.564,111.165h-0.272c-0.861,1.087-1.948,2.163-3.26,3.227c-1.314,1.064-2.83,2.015-4.551,2.853
			c-1.721,0.838-3.6,1.505-5.638,2.004c-2.038,0.498-4.211,0.747-6.521,0.747c-3.125,0-5.989-0.465-8.593-1.393
			c-2.605-0.928-4.846-2.286-6.725-4.076c-1.88-1.788-3.34-3.973-4.381-6.554c-1.042-2.581-1.562-5.503-1.562-8.763
			c0-3.214,0.577-6.09,1.732-8.626c1.155-2.536,2.773-4.688,4.857-6.453c2.082-1.766,4.585-3.125,7.506-4.076
			c2.921-0.951,6.147-1.426,9.68-1.426c3.351,0.045,6.453,0.339,9.305,0.882c2.853,0.544,5.389,1.223,7.608,2.038h0.272v-4.483
			c0-1.766-0.113-3.329-0.34-4.687c-0.227-1.358-0.611-2.558-1.155-3.6c-1.178-2.174-3.057-3.974-5.638-5.401
			c-2.581-1.426-6.068-2.14-10.461-2.14c-3.26,0-6.328,0.307-9.204,0.918c-2.876,0.611-5.74,1.46-8.593,2.547v-8.83
			c1.086-0.544,2.365-1.053,3.838-1.529c1.471-0.476,3.022-0.883,4.653-1.223c1.63-0.339,3.351-0.599,5.162-0.78
			c1.811-0.18,3.622-0.272,5.434-0.272c6.521,0,11.853,1.155,15.997,3.465c4.143,2.309,7.12,5.366,8.932,9.17
			c0.68,1.45,1.166,3.046,1.461,4.789c0.294,1.743,0.442,3.657,0.442,5.739v43.065h-8.831L242.564,111.165z M242.02,89.971
			c-1.939-0.544-4.238-1.062-6.898-1.562c-2.66-0.498-5.589-0.769-8.79-0.815c-4.463,0-7.957,0.951-10.481,2.853
			c-2.525,1.902-3.787,4.823-3.787,8.763c0,1.992,0.315,3.736,0.947,5.23c0.631,1.494,1.499,2.729,2.603,3.702
			c1.104,0.974,2.411,1.698,3.922,2.174c1.509,0.475,3.121,0.713,4.835,0.713c2.254,0,4.35-0.328,6.288-0.985
			c1.938-0.655,3.662-1.437,5.173-2.343c1.51-0.905,2.795-1.811,3.855-2.716c1.059-0.905,1.836-1.607,2.333-2.107V89.971z"/>
		<path fill="#35398B" d="M304.036,63.073v-0.271h-35.457v-9.035h48.839v6.657l-35.865,48.567v0.272h38.242v9.034h-52.303v-5.706
			L304.036,63.073z"/>
		<path fill="#35398B" d="M392.272,86.101c0,5.072-0.724,9.69-2.173,13.857c-1.45,4.167-3.498,7.733-6.147,10.699
			c-2.649,2.965-5.853,5.263-9.612,6.894c-3.759,1.631-7.971,2.445-12.634,2.445c-4.8,0-9.091-0.815-12.872-2.445
			c-3.781-1.631-6.996-3.929-9.645-6.894c-2.649-2.965-4.676-6.532-6.079-10.699c-1.404-4.167-2.106-8.785-2.106-13.857
			c0-5.117,0.724-9.759,2.173-13.925c1.449-4.165,3.499-7.743,6.147-10.732c2.649-2.989,5.864-5.299,9.646-6.93
			c3.78-1.629,8.003-2.445,12.668-2.445c4.755,0,9.034,0.816,12.838,2.445c3.804,1.631,7.018,3.941,9.645,6.93
			c2.626,2.989,4.641,6.566,6.046,10.732C391.569,76.342,392.272,80.983,392.272,86.101z M381.268,86.101
			c0-3.985-0.488-7.528-1.461-10.631c-0.974-3.102-2.333-5.728-4.076-7.879c-1.743-2.151-3.816-3.78-6.215-4.89
			c-2.401-1.109-5.027-1.665-7.88-1.665c-2.853,0-5.479,0.556-7.879,1.665c-2.401,1.11-4.473,2.74-6.215,4.89
			c-1.743,2.151-3.102,4.778-4.075,7.879c-0.975,3.103-1.461,6.646-1.461,10.631c0,3.94,0.486,7.461,1.461,10.562
			c0.973,3.102,2.343,5.717,4.109,7.845c1.766,2.129,3.848,3.748,6.249,4.857c2.399,1.11,5.026,1.664,7.879,1.664
			s5.468-0.553,7.845-1.664c2.377-1.109,4.438-2.729,6.181-4.857c1.743-2.127,3.102-4.743,4.076-7.845
			C380.781,93.561,381.268,90.04,381.268,86.101z M377.406,27.966l-13.674,19.426h-8.83l11.093-19.426H377.406z"/>
		<path fill="#35398B" d="M419.102,62.733h0.204c1.177-1.494,2.48-2.887,3.906-4.176c1.427-1.291,3.023-2.423,4.789-3.397
			c1.766-0.973,3.702-1.731,5.808-2.275c2.105-0.544,4.403-0.816,6.895-0.816c2.943,0,5.706,0.407,8.286,1.223
			c2.581,0.815,4.823,2.129,6.725,3.94c1.902,1.812,3.407,4.178,4.517,7.098c1.109,2.921,1.664,6.511,1.664,10.767v43.2h-10.529
			V76.795c0-5.57-1.076-9.578-3.227-12.024c-2.151-2.445-5.287-3.667-9.407-3.667c-3.624,0-7.133,1.009-10.529,3.022
			c-3.397,2.016-6.317,4.79-8.763,8.321v45.85h-10.529v-64.53h8.151L419.102,62.733z"/>
		<path fill="#35398B" d="M482.141,69.118h5.764l-5.864,16.46h-4.765L482.141,69.118z M494.07,69.118h5.831l-6.831,16.46h-4.832
			L494.07,69.118z"/>
	</g>
	
		<image overflow="visible" width="256" height="201" xlink:href="50665DAA.png"  transform="matrix(0.48 0 0 0.48 48.6522 42.4118)">
	</image>
</g>
</svg>
