<?xml version="1.0" encoding="utf-8"?>
<!-- Generator: Adobe Illustrator 17.0.0, SVG Export Plug-In . SVG Version: 6.00 Build 0)  -->
<!DOCTYPE svg PUBLIC "-//W3C//DTD SVG 1.1//EN" "http://www.w3.org/Graphics/SVG/1.1/DTD/svg11.dtd">
<svg version="1.1" id="Layer_1" xmlns="http://www.w3.org/2000/svg" xmlns:xlink="http://www.w3.org/1999/xlink" x="0px" y="0px"
	 width="245px" height="282px" viewBox="-16.495 -21.115 245 282" enable-background="new -16.495 -21.115 245 282"
	 xml:space="preserve">
<g>
	<path fill="#FFFFFF" d="M29.249,44.909c2.465,1.88,5.986,1.407,7.867-1.056c16.555-21.69,41.663-34.128,68.888-34.128
		s52.333,12.439,68.888,34.128c1.105,1.447,2.775,2.207,4.466,2.207c1.187,0,2.384-0.375,3.401-1.151
		c2.463-1.881,2.936-5.403,1.056-7.867C165.118,12.548,136.758-1.5,106.004-1.5S46.89,12.548,28.194,37.042
		C26.313,39.506,26.786,43.028,29.249,44.909z"/>
	<path fill="#FFFFFF" d="M165.661,74.846c0,9.665,7.864,17.528,17.528,17.528s17.528-7.864,17.528-17.528
		s-7.864-17.528-17.528-17.528S165.661,65.181,165.661,74.846L165.661,74.846z"/>
	<path fill="#FFFFFF" d="M201.128,98.191c-0.04-0.014-4.457-1.369-4.457-1.369c-1.599-0.488-3.336-0.188-4.675,0.815l-8.806,6.594
		l-8.807-6.594c-1.34-1.003-3.078-1.304-4.675-0.815c0,0-4.416,1.355-4.457,1.369c-7.106,2.369-11.88,8.993-11.88,16.483v26.499
		c0,1.022,0.299,2.022,0.861,2.876l8.887,13.524v35.517c0,2.893,2.345,5.238,5.238,5.238h29.667c2.893,0,5.238-2.345,5.238-5.238
		v-35.517l8.887-13.524c0.562-0.854,0.861-1.854,0.861-2.876v-26.499C213.009,107.184,208.234,100.561,201.128,98.191
		L201.128,98.191z"/>
	<path fill="#FFFFFF" d="M28.818,92.374c9.665,0,17.528-7.864,17.528-17.528s-7.864-17.528-17.528-17.528
		s-17.529,7.863-17.529,17.528C11.289,84.512,19.152,92.374,28.818,92.374L28.818,92.374z"/>
	<path fill="#FFFFFF" d="M46.756,98.191c-0.041-0.014-4.457-1.369-4.457-1.369c-1.6-0.488-3.336-0.188-4.675,0.815l-8.807,6.594
		l-8.806-6.594c-1.339-1.003-3.078-1.304-4.675-0.815c0,0-4.416,1.355-4.457,1.369C3.773,100.56-1,107.184-1,114.674v26.499
		c0,1.022,0.299,2.022,0.861,2.876l8.887,13.524v35.517c0,2.893,2.345,5.238,5.238,5.238h29.667c2.893,0,5.238-2.345,5.238-5.238
		v-35.517l8.887-13.524c0.562-0.854,0.861-1.854,0.861-2.876v-26.499C58.636,107.184,53.862,100.561,46.756,98.191z"/>
	<path fill="#FFFFFF" d="M128.612,50.143c0-12.466-10.142-22.608-22.608-22.608S83.396,37.677,83.396,50.143
		c0,12.467,10.142,22.608,22.608,22.608S128.612,62.61,128.612,50.143z"/>
	<path fill="#FFFFFF" d="M130.836,83.708l-0.038-0.012l-6.453-1.98c-1.018-0.313-2.105,0.226-2.471,1.23l-13.569,37.229
		c-0.783,2.147-3.82,2.147-4.603,0L90.133,82.946c-0.296-0.811-1.061-1.319-1.881-1.319c-0.194,0-7.036,2.066-7.036,2.066
		c-8.243,2.747-13.75,10.388-13.75,19.029v39.383c0,0.391,0.115,0.773,0.329,1.1l14.158,21.545v54.515
		c0,1.107,0.897,2.004,2.004,2.004h44.091c1.107,0,2.004-0.897,2.004-2.004V164.75l14.158-21.545c0.215-0.327,0.329-0.71,0.329-1.1
		v-39.486C144.54,94.016,139.012,86.387,130.836,83.708L130.836,83.708z"/>
	<path fill="#FFFFFF" d="M111.305,82.924c-0.56-0.611-1.38-0.918-2.21-0.918h-6.184c-0.829,0-1.649,0.308-2.21,0.918
		c-0.868,0.946-0.994,2.312-0.378,3.379l3.306,4.983l-1.547,13.055l3.047,8.107c0.297,0.815,1.45,0.815,1.748,0l3.048-8.107
		l-1.547-13.055l3.306-4.983C112.299,85.236,112.173,83.87,111.305,82.924L111.305,82.924z"/>
</g>
</svg>
