<?xml version="1.0" encoding="utf-8"?>
<!-- Generator: Adobe Illustrator 17.0.0, SVG Export Plug-In . SVG Version: 6.00 Build 0)  -->
<!DOCTYPE svg PUBLIC "-//W3C//DTD SVG 1.1//EN" "http://www.w3.org/Graphics/SVG/1.1/DTD/svg11.dtd">
<svg version="1.1" id="Layer_1" xmlns="http://www.w3.org/2000/svg" xmlns:xlink="http://www.w3.org/1999/xlink" x="0px" y="0px"
	 width="99.459px" height="86.248px" viewBox="0 0 99.459 86.248" enable-background="new 0 0 99.459 86.248" xml:space="preserve">
<g>
	<path fill="#FFFFFF" d="M97.475,22.234L77.229,1.988C75.947,0.706,74.243,0,72.43,0c-1.813,0-3.517,0.706-4.798,1.988l-4.758,4.757
		c-0.732,0.732-1.254,1.593-1.581,2.509L39.032,5.269c-0.002,0-0.003,0-0.005-0.001c-10.009-1.987-19.782,4.52-21.801,14.531
		L16.2,24.892c-1.134,5.624,2.52,11.122,8.144,12.256c5.625,1.133,11.123-2.52,12.257-8.144l0.628-3.114l9.983,0.873L73.28,52.832
		l4.725,4.725c0.957,0.957,0.956,2.514,0,3.47c-0.956,0.956-2.513,0.957-3.47,0L61.879,48.371c-0.882-0.882-2.311-0.882-3.192,0
		c-0.882,0.882-0.882,2.311,0,3.192L71.342,64.22c0.464,0.464,0.719,1.08,0.719,1.735s-0.255,1.271-0.719,1.735
		c-0.957,0.957-2.514,0.956-3.47,0L55.216,55.034c-0.882-0.882-2.311-0.882-3.192,0c-0.882,0.882-0.882,2.311,0,3.192L64.68,70.882
		c0.957,0.956,0.957,2.513,0,3.47c-0.464,0.464-1.08,0.719-1.735,0.719c-0.655,0-1.272-0.255-1.735-0.719L48.554,61.696
		c-0.882-0.882-2.311-0.882-3.192,0c-0.882,0.882-0.882,2.311,0,3.192l12.656,12.656c0.957,0.957,0.956,2.514,0,3.47
		c-0.956,0.956-2.513,0.957-3.47,0L9.767,36.235l-5.914-5.914c-0.882-0.882-2.311-0.882-3.192,0c-0.882,0.882-0.882,2.311,0,3.192
		l5.914,5.914l6.435,6.435L9.463,49.41c-1.161,1.161-1.801,2.706-1.801,4.349c0,1.643,0.64,3.187,1.801,4.349l1.158,1.158
		c1.015,1.015,2.324,1.632,3.734,1.771c0.139,1.41,0.755,2.719,1.771,3.734l1.158,1.158c1.043,1.043,2.37,1.631,3.733,1.766
		c0.138,1.412,0.755,2.722,1.772,3.738l1.158,1.158c1.015,1.015,2.324,1.632,3.734,1.771c0.139,1.41,0.755,2.719,1.771,3.734
		l1.158,1.158c1.199,1.199,2.774,1.798,4.349,1.798c1.575,0,3.15-0.599,4.349-1.798l3.548-3.548l8.501,8.501
		c1.316,1.316,3.066,2.041,4.928,2.041s3.611-0.725,4.928-2.041c1.247-1.247,1.955-2.885,2.027-4.636
		c1.751-0.072,3.389-0.78,4.636-2.027c1.285-1.285,1.955-2.952,2.024-4.639c1.687-0.07,3.353-0.739,4.638-2.024
		c1.285-1.285,1.955-2.952,2.024-4.639c1.687-0.07,3.354-0.739,4.639-2.024c2.717-2.717,2.717-7.138,0-9.855l-3.128-3.128
		L89.516,39.79l7.96-7.96C100.121,29.184,100.121,24.879,97.475,22.234L97.475,22.234z M12.655,54.916
		c-0.638-0.638-0.638-1.675,0-2.313l3.327-3.327l3.47,3.47l-3.327,3.327c-0.637,0.638-1.675,0.637-2.313,0L12.655,54.916z
		 M19.318,61.578c-0.638-0.638-0.638-1.675,0-2.312l3.327-3.327l3.47,3.47l-3.326,3.327c-0.638,0.637-1.676,0.638-2.313,0
		L19.318,61.578L19.318,61.578z M25.98,68.241c-0.309-0.309-0.479-0.72-0.479-1.156s0.17-0.847,0.479-1.156l3.327-3.327l3.47,3.47
		l-3.327,3.327c-0.637,0.637-1.675,0.637-2.312,0L25.98,68.241L25.98,68.241z M36.113,76.061c-0.637,0.638-1.675,0.637-2.313,0
		l-1.158-1.158c-0.638-0.638-0.638-1.675,0-2.313l3.327-3.327l3.47,3.47L36.113,76.061L36.113,76.061z M74.876,48.044L49.822,22.989
		c-0.375-0.375-0.871-0.606-1.4-0.652l-12.812-1.12c-0.067-0.006-0.133-0.009-0.198-0.009c-1.064,0-1.997,0.751-2.211,1.812
		l-1.027,5.093c-0.642,3.184-3.753,5.251-6.939,4.61c-1.542-0.311-2.871-1.204-3.742-2.514c-0.871-1.31-1.179-2.882-0.868-4.424
		l1.027-5.093c1.53-7.588,8.945-12.519,16.536-10.988c0.016,0.003,0.032,0.006,0.048,0.009l21.937,3.928l2.701,2.701l21.852,21.852
		L74.876,48.044z M94.282,28.638l-6.364,6.364L66.066,13.149c-0.429-0.429-0.665-0.999-0.665-1.606s0.236-1.177,0.665-1.606
		l4.758-4.758c0.429-0.429,0.999-0.665,1.606-0.665s1.177,0.236,1.606,0.665l20.246,20.246c0.429,0.429,0.665,0.999,0.665,1.606
		S94.711,28.209,94.282,28.638L94.282,28.638z"/>
	<circle fill="#FFFFFF" cx="88.818" cy="27.928" r="2.257"/>
</g>
</svg>
